%TF.GenerationSoftware,KiCad,Pcbnew,8.0.4*%
%TF.CreationDate,2024-09-13T06:36:19-04:00*%
%TF.ProjectId,UpTime,55705469-6d65-42e6-9b69-6361645f7063,rev?*%
%TF.SameCoordinates,Original*%
%TF.FileFunction,Legend,Top*%
%TF.FilePolarity,Positive*%
%FSLAX46Y46*%
G04 Gerber Fmt 4.6, Leading zero omitted, Abs format (unit mm)*
G04 Created by KiCad (PCBNEW 8.0.4) date 2024-09-13 06:36:19*
%MOMM*%
%LPD*%
G01*
G04 APERTURE LIST*
%ADD10C,0.100000*%
%ADD11C,0.300000*%
%ADD12C,0.150000*%
%ADD13C,0.120000*%
%ADD14C,0.000000*%
%ADD15C,0.127000*%
%ADD16C,0.200000*%
%ADD17C,2.700000*%
%ADD18R,1.000000X1.500000*%
%ADD19C,1.600000*%
%ADD20O,1.600000X1.600000*%
%ADD21R,1.800000X1.800000*%
%ADD22C,1.800000*%
%ADD23R,1.600000X1.600000*%
%ADD24R,2.000000X2.000000*%
%ADD25C,2.000000*%
%ADD26R,3.000000X3.000000*%
%ADD27C,3.000000*%
%ADD28R,2.600000X2.600000*%
%ADD29C,2.600000*%
%ADD30C,1.728000*%
%ADD31R,2.200000X2.200000*%
%ADD32O,2.200000X2.200000*%
G04 APERTURE END LIST*
D10*
X116294247Y-97041979D02*
X117722819Y-97041979D01*
X117008533Y-99280075D02*
X117008533Y-100041980D01*
X116627580Y-99661027D02*
X117389485Y-99661027D01*
X117532342Y-101232456D02*
X117579961Y-101280075D01*
X117579961Y-101280075D02*
X117627580Y-101375313D01*
X117627580Y-101375313D02*
X117627580Y-101613408D01*
X117627580Y-101613408D02*
X117579961Y-101708646D01*
X117579961Y-101708646D02*
X117532342Y-101756265D01*
X117532342Y-101756265D02*
X117437104Y-101803884D01*
X117437104Y-101803884D02*
X117341866Y-101803884D01*
X117341866Y-101803884D02*
X117199009Y-101756265D01*
X117199009Y-101756265D02*
X116627580Y-101184837D01*
X116627580Y-101184837D02*
X116627580Y-101803884D01*
X116913295Y-102184837D02*
X116913295Y-102661027D01*
X116627580Y-102089599D02*
X117627580Y-102422932D01*
X117627580Y-102422932D02*
X116627580Y-102756265D01*
X117008533Y-104613409D02*
X117008533Y-105375314D01*
X116794247Y-60041979D02*
X118222819Y-60041979D01*
X118127580Y-61232455D02*
X118127580Y-60756265D01*
X118127580Y-60756265D02*
X117651390Y-60708646D01*
X117651390Y-60708646D02*
X117699009Y-60756265D01*
X117699009Y-60756265D02*
X117746628Y-60851503D01*
X117746628Y-60851503D02*
X117746628Y-61089598D01*
X117746628Y-61089598D02*
X117699009Y-61184836D01*
X117699009Y-61184836D02*
X117651390Y-61232455D01*
X117651390Y-61232455D02*
X117556152Y-61280074D01*
X117556152Y-61280074D02*
X117318057Y-61280074D01*
X117318057Y-61280074D02*
X117222819Y-61232455D01*
X117222819Y-61232455D02*
X117175200Y-61184836D01*
X117175200Y-61184836D02*
X117127580Y-61089598D01*
X117127580Y-61089598D02*
X117127580Y-60851503D01*
X117127580Y-60851503D02*
X117175200Y-60756265D01*
X117175200Y-60756265D02*
X117222819Y-60708646D01*
X117508533Y-61708646D02*
X117508533Y-62470551D01*
X118127580Y-62851503D02*
X118127580Y-63470550D01*
X118127580Y-63470550D02*
X117746628Y-63137217D01*
X117746628Y-63137217D02*
X117746628Y-63280074D01*
X117746628Y-63280074D02*
X117699009Y-63375312D01*
X117699009Y-63375312D02*
X117651390Y-63422931D01*
X117651390Y-63422931D02*
X117556152Y-63470550D01*
X117556152Y-63470550D02*
X117318057Y-63470550D01*
X117318057Y-63470550D02*
X117222819Y-63422931D01*
X117222819Y-63422931D02*
X117175200Y-63375312D01*
X117175200Y-63375312D02*
X117127580Y-63280074D01*
X117127580Y-63280074D02*
X117127580Y-62994360D01*
X117127580Y-62994360D02*
X117175200Y-62899122D01*
X117175200Y-62899122D02*
X117222819Y-62851503D01*
X118127580Y-64089598D02*
X118127580Y-64184836D01*
X118127580Y-64184836D02*
X118079961Y-64280074D01*
X118079961Y-64280074D02*
X118032342Y-64327693D01*
X118032342Y-64327693D02*
X117937104Y-64375312D01*
X117937104Y-64375312D02*
X117746628Y-64422931D01*
X117746628Y-64422931D02*
X117508533Y-64422931D01*
X117508533Y-64422931D02*
X117318057Y-64375312D01*
X117318057Y-64375312D02*
X117222819Y-64327693D01*
X117222819Y-64327693D02*
X117175200Y-64280074D01*
X117175200Y-64280074D02*
X117127580Y-64184836D01*
X117127580Y-64184836D02*
X117127580Y-64089598D01*
X117127580Y-64089598D02*
X117175200Y-63994360D01*
X117175200Y-63994360D02*
X117222819Y-63946741D01*
X117222819Y-63946741D02*
X117318057Y-63899122D01*
X117318057Y-63899122D02*
X117508533Y-63851503D01*
X117508533Y-63851503D02*
X117746628Y-63851503D01*
X117746628Y-63851503D02*
X117937104Y-63899122D01*
X117937104Y-63899122D02*
X118032342Y-63946741D01*
X118032342Y-63946741D02*
X118079961Y-63994360D01*
X118079961Y-63994360D02*
X118127580Y-64089598D01*
X118127580Y-64708646D02*
X117127580Y-65041979D01*
X117127580Y-65041979D02*
X118127580Y-65375312D01*
X117413295Y-66422932D02*
X117413295Y-66899122D01*
X117127580Y-66327694D02*
X118127580Y-66661027D01*
X118127580Y-66661027D02*
X117127580Y-66994360D01*
X117222819Y-67899122D02*
X117175200Y-67851503D01*
X117175200Y-67851503D02*
X117127580Y-67708646D01*
X117127580Y-67708646D02*
X117127580Y-67613408D01*
X117127580Y-67613408D02*
X117175200Y-67470551D01*
X117175200Y-67470551D02*
X117270438Y-67375313D01*
X117270438Y-67375313D02*
X117365676Y-67327694D01*
X117365676Y-67327694D02*
X117556152Y-67280075D01*
X117556152Y-67280075D02*
X117699009Y-67280075D01*
X117699009Y-67280075D02*
X117889485Y-67327694D01*
X117889485Y-67327694D02*
X117984723Y-67375313D01*
X117984723Y-67375313D02*
X118079961Y-67470551D01*
X118079961Y-67470551D02*
X118127580Y-67613408D01*
X118127580Y-67613408D02*
X118127580Y-67708646D01*
X118127580Y-67708646D02*
X118079961Y-67851503D01*
X118079961Y-67851503D02*
X118032342Y-67899122D01*
X118175200Y-69041979D02*
X116889485Y-68184837D01*
X117127580Y-69375313D02*
X118127580Y-69375313D01*
X118127580Y-69375313D02*
X118127580Y-69613408D01*
X118127580Y-69613408D02*
X118079961Y-69756265D01*
X118079961Y-69756265D02*
X117984723Y-69851503D01*
X117984723Y-69851503D02*
X117889485Y-69899122D01*
X117889485Y-69899122D02*
X117699009Y-69946741D01*
X117699009Y-69946741D02*
X117556152Y-69946741D01*
X117556152Y-69946741D02*
X117365676Y-69899122D01*
X117365676Y-69899122D02*
X117270438Y-69851503D01*
X117270438Y-69851503D02*
X117175200Y-69756265D01*
X117175200Y-69756265D02*
X117127580Y-69613408D01*
X117127580Y-69613408D02*
X117127580Y-69375313D01*
X117222819Y-70946741D02*
X117175200Y-70899122D01*
X117175200Y-70899122D02*
X117127580Y-70756265D01*
X117127580Y-70756265D02*
X117127580Y-70661027D01*
X117127580Y-70661027D02*
X117175200Y-70518170D01*
X117175200Y-70518170D02*
X117270438Y-70422932D01*
X117270438Y-70422932D02*
X117365676Y-70375313D01*
X117365676Y-70375313D02*
X117556152Y-70327694D01*
X117556152Y-70327694D02*
X117699009Y-70327694D01*
X117699009Y-70327694D02*
X117889485Y-70375313D01*
X117889485Y-70375313D02*
X117984723Y-70422932D01*
X117984723Y-70422932D02*
X118079961Y-70518170D01*
X118079961Y-70518170D02*
X118127580Y-70661027D01*
X118127580Y-70661027D02*
X118127580Y-70756265D01*
X118127580Y-70756265D02*
X118079961Y-70899122D01*
X118079961Y-70899122D02*
X118032342Y-70946741D01*
X116794247Y-71613408D02*
X118222819Y-71613408D01*
X116294247Y-77041979D02*
X117722819Y-77041979D01*
X117008533Y-79280075D02*
X117008533Y-80041980D01*
X116627580Y-79661027D02*
X117389485Y-79661027D01*
X116627580Y-81803884D02*
X116627580Y-81232456D01*
X116627580Y-81518170D02*
X117627580Y-81518170D01*
X117627580Y-81518170D02*
X117484723Y-81422932D01*
X117484723Y-81422932D02*
X117389485Y-81327694D01*
X117389485Y-81327694D02*
X117341866Y-81232456D01*
X116913295Y-82184837D02*
X116913295Y-82661027D01*
X116627580Y-82089599D02*
X117627580Y-82422932D01*
X117627580Y-82422932D02*
X116627580Y-82756265D01*
X117008533Y-84613409D02*
X117008533Y-85375314D01*
D11*
X178954171Y-83911653D02*
X178954171Y-84911653D01*
X177382742Y-85340225D02*
X177382742Y-83911653D01*
X177382742Y-83911653D02*
X180382742Y-83911653D01*
X180382742Y-83911653D02*
X180382742Y-85340225D01*
X178954171Y-86625939D02*
X178954171Y-87625939D01*
X177382742Y-88054511D02*
X177382742Y-86625939D01*
X177382742Y-86625939D02*
X180382742Y-86625939D01*
X180382742Y-86625939D02*
X180382742Y-88054511D01*
X177382742Y-89340225D02*
X180382742Y-89340225D01*
X180382742Y-89340225D02*
X178239885Y-90340225D01*
X178239885Y-90340225D02*
X180382742Y-91340225D01*
X180382742Y-91340225D02*
X177382742Y-91340225D01*
X180382742Y-92483082D02*
X177382742Y-93197368D01*
X177382742Y-93197368D02*
X179525600Y-93768796D01*
X179525600Y-93768796D02*
X177382742Y-94340225D01*
X177382742Y-94340225D02*
X180382742Y-95054511D01*
X177382742Y-98483081D02*
X180382742Y-98483081D01*
X180382742Y-98483081D02*
X178239885Y-99483081D01*
X178239885Y-99483081D02*
X180382742Y-100483081D01*
X180382742Y-100483081D02*
X177382742Y-100483081D01*
X177382742Y-102340224D02*
X177525600Y-102054509D01*
X177525600Y-102054509D02*
X177668457Y-101911652D01*
X177668457Y-101911652D02*
X177954171Y-101768795D01*
X177954171Y-101768795D02*
X178811314Y-101768795D01*
X178811314Y-101768795D02*
X179097028Y-101911652D01*
X179097028Y-101911652D02*
X179239885Y-102054509D01*
X179239885Y-102054509D02*
X179382742Y-102340224D01*
X179382742Y-102340224D02*
X179382742Y-102768795D01*
X179382742Y-102768795D02*
X179239885Y-103054509D01*
X179239885Y-103054509D02*
X179097028Y-103197367D01*
X179097028Y-103197367D02*
X178811314Y-103340224D01*
X178811314Y-103340224D02*
X177954171Y-103340224D01*
X177954171Y-103340224D02*
X177668457Y-103197367D01*
X177668457Y-103197367D02*
X177525600Y-103054509D01*
X177525600Y-103054509D02*
X177382742Y-102768795D01*
X177382742Y-102768795D02*
X177382742Y-102340224D01*
X179382742Y-104625938D02*
X177382742Y-104625938D01*
X179097028Y-104625938D02*
X179239885Y-104768795D01*
X179239885Y-104768795D02*
X179382742Y-105054510D01*
X179382742Y-105054510D02*
X179382742Y-105483081D01*
X179382742Y-105483081D02*
X179239885Y-105768795D01*
X179239885Y-105768795D02*
X178954171Y-105911653D01*
X178954171Y-105911653D02*
X177382742Y-105911653D01*
X177382742Y-107340224D02*
X179382742Y-107340224D01*
X180382742Y-107340224D02*
X180239885Y-107197367D01*
X180239885Y-107197367D02*
X180097028Y-107340224D01*
X180097028Y-107340224D02*
X180239885Y-107483081D01*
X180239885Y-107483081D02*
X180382742Y-107340224D01*
X180382742Y-107340224D02*
X180097028Y-107340224D01*
X179382742Y-108340224D02*
X179382742Y-109483081D01*
X180382742Y-108768795D02*
X177811314Y-108768795D01*
X177811314Y-108768795D02*
X177525600Y-108911652D01*
X177525600Y-108911652D02*
X177382742Y-109197367D01*
X177382742Y-109197367D02*
X177382742Y-109483081D01*
X177382742Y-110911653D02*
X177525600Y-110625938D01*
X177525600Y-110625938D02*
X177668457Y-110483081D01*
X177668457Y-110483081D02*
X177954171Y-110340224D01*
X177954171Y-110340224D02*
X178811314Y-110340224D01*
X178811314Y-110340224D02*
X179097028Y-110483081D01*
X179097028Y-110483081D02*
X179239885Y-110625938D01*
X179239885Y-110625938D02*
X179382742Y-110911653D01*
X179382742Y-110911653D02*
X179382742Y-111340224D01*
X179382742Y-111340224D02*
X179239885Y-111625938D01*
X179239885Y-111625938D02*
X179097028Y-111768796D01*
X179097028Y-111768796D02*
X178811314Y-111911653D01*
X178811314Y-111911653D02*
X177954171Y-111911653D01*
X177954171Y-111911653D02*
X177668457Y-111768796D01*
X177668457Y-111768796D02*
X177525600Y-111625938D01*
X177525600Y-111625938D02*
X177382742Y-111340224D01*
X177382742Y-111340224D02*
X177382742Y-110911653D01*
X177382742Y-113197367D02*
X179382742Y-113197367D01*
X178811314Y-113197367D02*
X179097028Y-113340224D01*
X179097028Y-113340224D02*
X179239885Y-113483082D01*
X179239885Y-113483082D02*
X179382742Y-113768796D01*
X179382742Y-113768796D02*
X179382742Y-114054510D01*
X180382742Y-116911653D02*
X177382742Y-117911653D01*
X177382742Y-117911653D02*
X180382742Y-118911653D01*
X180097028Y-119768796D02*
X180239885Y-119911653D01*
X180239885Y-119911653D02*
X180382742Y-120197368D01*
X180382742Y-120197368D02*
X180382742Y-120911653D01*
X180382742Y-120911653D02*
X180239885Y-121197368D01*
X180239885Y-121197368D02*
X180097028Y-121340225D01*
X180097028Y-121340225D02*
X179811314Y-121483082D01*
X179811314Y-121483082D02*
X179525600Y-121483082D01*
X179525600Y-121483082D02*
X179097028Y-121340225D01*
X179097028Y-121340225D02*
X177382742Y-119625939D01*
X177382742Y-119625939D02*
X177382742Y-121483082D01*
D10*
X116294247Y-107041979D02*
X117722819Y-107041979D01*
X117008533Y-109280075D02*
X117008533Y-110041980D01*
X116627580Y-109661027D02*
X117389485Y-109661027D01*
X117532342Y-111232456D02*
X117579961Y-111280075D01*
X117579961Y-111280075D02*
X117627580Y-111375313D01*
X117627580Y-111375313D02*
X117627580Y-111613408D01*
X117627580Y-111613408D02*
X117579961Y-111708646D01*
X117579961Y-111708646D02*
X117532342Y-111756265D01*
X117532342Y-111756265D02*
X117437104Y-111803884D01*
X117437104Y-111803884D02*
X117341866Y-111803884D01*
X117341866Y-111803884D02*
X117199009Y-111756265D01*
X117199009Y-111756265D02*
X116627580Y-111184837D01*
X116627580Y-111184837D02*
X116627580Y-111803884D01*
X117151390Y-112565789D02*
X117103771Y-112708646D01*
X117103771Y-112708646D02*
X117056152Y-112756265D01*
X117056152Y-112756265D02*
X116960914Y-112803884D01*
X116960914Y-112803884D02*
X116818057Y-112803884D01*
X116818057Y-112803884D02*
X116722819Y-112756265D01*
X116722819Y-112756265D02*
X116675200Y-112708646D01*
X116675200Y-112708646D02*
X116627580Y-112613408D01*
X116627580Y-112613408D02*
X116627580Y-112232456D01*
X116627580Y-112232456D02*
X117627580Y-112232456D01*
X117627580Y-112232456D02*
X117627580Y-112565789D01*
X117627580Y-112565789D02*
X117579961Y-112661027D01*
X117579961Y-112661027D02*
X117532342Y-112708646D01*
X117532342Y-112708646D02*
X117437104Y-112756265D01*
X117437104Y-112756265D02*
X117341866Y-112756265D01*
X117341866Y-112756265D02*
X117246628Y-112708646D01*
X117246628Y-112708646D02*
X117199009Y-112661027D01*
X117199009Y-112661027D02*
X117151390Y-112565789D01*
X117151390Y-112565789D02*
X117151390Y-112232456D01*
X117008533Y-114756266D02*
X117008533Y-115518171D01*
X116294247Y-87041979D02*
X117722819Y-87041979D01*
X117008533Y-89280075D02*
X117008533Y-90041980D01*
X116627580Y-89661027D02*
X117389485Y-89661027D01*
X116627580Y-91803884D02*
X116627580Y-91232456D01*
X116627580Y-91518170D02*
X117627580Y-91518170D01*
X117627580Y-91518170D02*
X117484723Y-91422932D01*
X117484723Y-91422932D02*
X117389485Y-91327694D01*
X117389485Y-91327694D02*
X117341866Y-91232456D01*
X117151390Y-92565789D02*
X117103771Y-92708646D01*
X117103771Y-92708646D02*
X117056152Y-92756265D01*
X117056152Y-92756265D02*
X116960914Y-92803884D01*
X116960914Y-92803884D02*
X116818057Y-92803884D01*
X116818057Y-92803884D02*
X116722819Y-92756265D01*
X116722819Y-92756265D02*
X116675200Y-92708646D01*
X116675200Y-92708646D02*
X116627580Y-92613408D01*
X116627580Y-92613408D02*
X116627580Y-92232456D01*
X116627580Y-92232456D02*
X117627580Y-92232456D01*
X117627580Y-92232456D02*
X117627580Y-92565789D01*
X117627580Y-92565789D02*
X117579961Y-92661027D01*
X117579961Y-92661027D02*
X117532342Y-92708646D01*
X117532342Y-92708646D02*
X117437104Y-92756265D01*
X117437104Y-92756265D02*
X117341866Y-92756265D01*
X117341866Y-92756265D02*
X117246628Y-92708646D01*
X117246628Y-92708646D02*
X117199009Y-92661027D01*
X117199009Y-92661027D02*
X117151390Y-92565789D01*
X117151390Y-92565789D02*
X117151390Y-92232456D01*
X117008533Y-94756266D02*
X117008533Y-95518171D01*
X116294247Y-117041979D02*
X117722819Y-117041979D01*
X117008533Y-119280075D02*
X117008533Y-120041980D01*
X116627580Y-119661027D02*
X117389485Y-119661027D01*
X117627580Y-121184837D02*
X117627580Y-121803884D01*
X117627580Y-121803884D02*
X117246628Y-121470551D01*
X117246628Y-121470551D02*
X117246628Y-121613408D01*
X117246628Y-121613408D02*
X117199009Y-121708646D01*
X117199009Y-121708646D02*
X117151390Y-121756265D01*
X117151390Y-121756265D02*
X117056152Y-121803884D01*
X117056152Y-121803884D02*
X116818057Y-121803884D01*
X116818057Y-121803884D02*
X116722819Y-121756265D01*
X116722819Y-121756265D02*
X116675200Y-121708646D01*
X116675200Y-121708646D02*
X116627580Y-121613408D01*
X116627580Y-121613408D02*
X116627580Y-121327694D01*
X116627580Y-121327694D02*
X116675200Y-121232456D01*
X116675200Y-121232456D02*
X116722819Y-121184837D01*
X116913295Y-122184837D02*
X116913295Y-122661027D01*
X116627580Y-122089599D02*
X117627580Y-122422932D01*
X117627580Y-122422932D02*
X116627580Y-122756265D01*
X117008533Y-124613409D02*
X117008533Y-125375314D01*
X116294247Y-127041979D02*
X117722819Y-127041979D01*
X117008533Y-129280075D02*
X117008533Y-130041980D01*
X116627580Y-129661027D02*
X117389485Y-129661027D01*
X117627580Y-131184837D02*
X117627580Y-131803884D01*
X117627580Y-131803884D02*
X117246628Y-131470551D01*
X117246628Y-131470551D02*
X117246628Y-131613408D01*
X117246628Y-131613408D02*
X117199009Y-131708646D01*
X117199009Y-131708646D02*
X117151390Y-131756265D01*
X117151390Y-131756265D02*
X117056152Y-131803884D01*
X117056152Y-131803884D02*
X116818057Y-131803884D01*
X116818057Y-131803884D02*
X116722819Y-131756265D01*
X116722819Y-131756265D02*
X116675200Y-131708646D01*
X116675200Y-131708646D02*
X116627580Y-131613408D01*
X116627580Y-131613408D02*
X116627580Y-131327694D01*
X116627580Y-131327694D02*
X116675200Y-131232456D01*
X116675200Y-131232456D02*
X116722819Y-131184837D01*
X117151390Y-132565789D02*
X117103771Y-132708646D01*
X117103771Y-132708646D02*
X117056152Y-132756265D01*
X117056152Y-132756265D02*
X116960914Y-132803884D01*
X116960914Y-132803884D02*
X116818057Y-132803884D01*
X116818057Y-132803884D02*
X116722819Y-132756265D01*
X116722819Y-132756265D02*
X116675200Y-132708646D01*
X116675200Y-132708646D02*
X116627580Y-132613408D01*
X116627580Y-132613408D02*
X116627580Y-132232456D01*
X116627580Y-132232456D02*
X117627580Y-132232456D01*
X117627580Y-132232456D02*
X117627580Y-132565789D01*
X117627580Y-132565789D02*
X117579961Y-132661027D01*
X117579961Y-132661027D02*
X117532342Y-132708646D01*
X117532342Y-132708646D02*
X117437104Y-132756265D01*
X117437104Y-132756265D02*
X117341866Y-132756265D01*
X117341866Y-132756265D02*
X117246628Y-132708646D01*
X117246628Y-132708646D02*
X117199009Y-132661027D01*
X117199009Y-132661027D02*
X117151390Y-132565789D01*
X117151390Y-132565789D02*
X117151390Y-132232456D01*
X117008533Y-134756266D02*
X117008533Y-135518171D01*
X116294247Y-137756266D02*
X117722819Y-137756266D01*
D12*
X134584819Y-111476666D02*
X134108628Y-111809999D01*
X134584819Y-112048094D02*
X133584819Y-112048094D01*
X133584819Y-112048094D02*
X133584819Y-111667142D01*
X133584819Y-111667142D02*
X133632438Y-111571904D01*
X133632438Y-111571904D02*
X133680057Y-111524285D01*
X133680057Y-111524285D02*
X133775295Y-111476666D01*
X133775295Y-111476666D02*
X133918152Y-111476666D01*
X133918152Y-111476666D02*
X134013390Y-111524285D01*
X134013390Y-111524285D02*
X134061009Y-111571904D01*
X134061009Y-111571904D02*
X134108628Y-111667142D01*
X134108628Y-111667142D02*
X134108628Y-112048094D01*
X133584819Y-111143332D02*
X133584819Y-110476666D01*
X133584819Y-110476666D02*
X134584819Y-110905237D01*
X130991905Y-122914819D02*
X130991905Y-121914819D01*
X130991905Y-121914819D02*
X131230000Y-121914819D01*
X131230000Y-121914819D02*
X131372857Y-121962438D01*
X131372857Y-121962438D02*
X131468095Y-122057676D01*
X131468095Y-122057676D02*
X131515714Y-122152914D01*
X131515714Y-122152914D02*
X131563333Y-122343390D01*
X131563333Y-122343390D02*
X131563333Y-122486247D01*
X131563333Y-122486247D02*
X131515714Y-122676723D01*
X131515714Y-122676723D02*
X131468095Y-122771961D01*
X131468095Y-122771961D02*
X131372857Y-122867200D01*
X131372857Y-122867200D02*
X131230000Y-122914819D01*
X131230000Y-122914819D02*
X130991905Y-122914819D01*
X131896667Y-121914819D02*
X132563333Y-121914819D01*
X132563333Y-121914819D02*
X132134762Y-122914819D01*
X144324819Y-102071904D02*
X145134342Y-102071904D01*
X145134342Y-102071904D02*
X145229580Y-102024285D01*
X145229580Y-102024285D02*
X145277200Y-101976666D01*
X145277200Y-101976666D02*
X145324819Y-101881428D01*
X145324819Y-101881428D02*
X145324819Y-101690952D01*
X145324819Y-101690952D02*
X145277200Y-101595714D01*
X145277200Y-101595714D02*
X145229580Y-101548095D01*
X145229580Y-101548095D02*
X145134342Y-101500476D01*
X145134342Y-101500476D02*
X144324819Y-101500476D01*
X144658152Y-100595714D02*
X145324819Y-100595714D01*
X144277200Y-100833809D02*
X144991485Y-101071904D01*
X144991485Y-101071904D02*
X144991485Y-100452857D01*
X129109580Y-59034343D02*
X129157200Y-59081962D01*
X129157200Y-59081962D02*
X129204819Y-59224819D01*
X129204819Y-59224819D02*
X129204819Y-59320057D01*
X129204819Y-59320057D02*
X129157200Y-59462914D01*
X129157200Y-59462914D02*
X129061961Y-59558152D01*
X129061961Y-59558152D02*
X128966723Y-59605771D01*
X128966723Y-59605771D02*
X128776247Y-59653390D01*
X128776247Y-59653390D02*
X128633390Y-59653390D01*
X128633390Y-59653390D02*
X128442914Y-59605771D01*
X128442914Y-59605771D02*
X128347676Y-59558152D01*
X128347676Y-59558152D02*
X128252438Y-59462914D01*
X128252438Y-59462914D02*
X128204819Y-59320057D01*
X128204819Y-59320057D02*
X128204819Y-59224819D01*
X128204819Y-59224819D02*
X128252438Y-59081962D01*
X128252438Y-59081962D02*
X128300057Y-59034343D01*
X129204819Y-58081962D02*
X129204819Y-58653390D01*
X129204819Y-58367676D02*
X128204819Y-58367676D01*
X128204819Y-58367676D02*
X128347676Y-58462914D01*
X128347676Y-58462914D02*
X128442914Y-58558152D01*
X128442914Y-58558152D02*
X128490533Y-58653390D01*
X144084819Y-81356666D02*
X143608628Y-81689999D01*
X144084819Y-81928094D02*
X143084819Y-81928094D01*
X143084819Y-81928094D02*
X143084819Y-81547142D01*
X143084819Y-81547142D02*
X143132438Y-81451904D01*
X143132438Y-81451904D02*
X143180057Y-81404285D01*
X143180057Y-81404285D02*
X143275295Y-81356666D01*
X143275295Y-81356666D02*
X143418152Y-81356666D01*
X143418152Y-81356666D02*
X143513390Y-81404285D01*
X143513390Y-81404285D02*
X143561009Y-81451904D01*
X143561009Y-81451904D02*
X143608628Y-81547142D01*
X143608628Y-81547142D02*
X143608628Y-81928094D01*
X143180057Y-80975713D02*
X143132438Y-80928094D01*
X143132438Y-80928094D02*
X143084819Y-80832856D01*
X143084819Y-80832856D02*
X143084819Y-80594761D01*
X143084819Y-80594761D02*
X143132438Y-80499523D01*
X143132438Y-80499523D02*
X143180057Y-80451904D01*
X143180057Y-80451904D02*
X143275295Y-80404285D01*
X143275295Y-80404285D02*
X143370533Y-80404285D01*
X143370533Y-80404285D02*
X143513390Y-80451904D01*
X143513390Y-80451904D02*
X144084819Y-81023332D01*
X144084819Y-81023332D02*
X144084819Y-80404285D01*
X144284819Y-132951904D02*
X145094342Y-132951904D01*
X145094342Y-132951904D02*
X145189580Y-132904285D01*
X145189580Y-132904285D02*
X145237200Y-132856666D01*
X145237200Y-132856666D02*
X145284819Y-132761428D01*
X145284819Y-132761428D02*
X145284819Y-132570952D01*
X145284819Y-132570952D02*
X145237200Y-132475714D01*
X145237200Y-132475714D02*
X145189580Y-132428095D01*
X145189580Y-132428095D02*
X145094342Y-132380476D01*
X145094342Y-132380476D02*
X144284819Y-132380476D01*
X144713390Y-131761428D02*
X144665771Y-131856666D01*
X144665771Y-131856666D02*
X144618152Y-131904285D01*
X144618152Y-131904285D02*
X144522914Y-131951904D01*
X144522914Y-131951904D02*
X144475295Y-131951904D01*
X144475295Y-131951904D02*
X144380057Y-131904285D01*
X144380057Y-131904285D02*
X144332438Y-131856666D01*
X144332438Y-131856666D02*
X144284819Y-131761428D01*
X144284819Y-131761428D02*
X144284819Y-131570952D01*
X144284819Y-131570952D02*
X144332438Y-131475714D01*
X144332438Y-131475714D02*
X144380057Y-131428095D01*
X144380057Y-131428095D02*
X144475295Y-131380476D01*
X144475295Y-131380476D02*
X144522914Y-131380476D01*
X144522914Y-131380476D02*
X144618152Y-131428095D01*
X144618152Y-131428095D02*
X144665771Y-131475714D01*
X144665771Y-131475714D02*
X144713390Y-131570952D01*
X144713390Y-131570952D02*
X144713390Y-131761428D01*
X144713390Y-131761428D02*
X144761009Y-131856666D01*
X144761009Y-131856666D02*
X144808628Y-131904285D01*
X144808628Y-131904285D02*
X144903866Y-131951904D01*
X144903866Y-131951904D02*
X145094342Y-131951904D01*
X145094342Y-131951904D02*
X145189580Y-131904285D01*
X145189580Y-131904285D02*
X145237200Y-131856666D01*
X145237200Y-131856666D02*
X145284819Y-131761428D01*
X145284819Y-131761428D02*
X145284819Y-131570952D01*
X145284819Y-131570952D02*
X145237200Y-131475714D01*
X145237200Y-131475714D02*
X145189580Y-131428095D01*
X145189580Y-131428095D02*
X145094342Y-131380476D01*
X145094342Y-131380476D02*
X144903866Y-131380476D01*
X144903866Y-131380476D02*
X144808628Y-131428095D01*
X144808628Y-131428095D02*
X144761009Y-131475714D01*
X144761009Y-131475714D02*
X144713390Y-131570952D01*
X134584819Y-122142857D02*
X134108628Y-122476190D01*
X134584819Y-122714285D02*
X133584819Y-122714285D01*
X133584819Y-122714285D02*
X133584819Y-122333333D01*
X133584819Y-122333333D02*
X133632438Y-122238095D01*
X133632438Y-122238095D02*
X133680057Y-122190476D01*
X133680057Y-122190476D02*
X133775295Y-122142857D01*
X133775295Y-122142857D02*
X133918152Y-122142857D01*
X133918152Y-122142857D02*
X134013390Y-122190476D01*
X134013390Y-122190476D02*
X134061009Y-122238095D01*
X134061009Y-122238095D02*
X134108628Y-122333333D01*
X134108628Y-122333333D02*
X134108628Y-122714285D01*
X134584819Y-121190476D02*
X134584819Y-121761904D01*
X134584819Y-121476190D02*
X133584819Y-121476190D01*
X133584819Y-121476190D02*
X133727676Y-121571428D01*
X133727676Y-121571428D02*
X133822914Y-121666666D01*
X133822914Y-121666666D02*
X133870533Y-121761904D01*
X133680057Y-120809523D02*
X133632438Y-120761904D01*
X133632438Y-120761904D02*
X133584819Y-120666666D01*
X133584819Y-120666666D02*
X133584819Y-120428571D01*
X133584819Y-120428571D02*
X133632438Y-120333333D01*
X133632438Y-120333333D02*
X133680057Y-120285714D01*
X133680057Y-120285714D02*
X133775295Y-120238095D01*
X133775295Y-120238095D02*
X133870533Y-120238095D01*
X133870533Y-120238095D02*
X134013390Y-120285714D01*
X134013390Y-120285714D02*
X134584819Y-120857142D01*
X134584819Y-120857142D02*
X134584819Y-120238095D01*
X167824819Y-60166666D02*
X167824819Y-60642856D01*
X167824819Y-60642856D02*
X166824819Y-60642856D01*
X167824819Y-59309523D02*
X167824819Y-59880951D01*
X167824819Y-59595237D02*
X166824819Y-59595237D01*
X166824819Y-59595237D02*
X166967676Y-59690475D01*
X166967676Y-59690475D02*
X167062914Y-59785713D01*
X167062914Y-59785713D02*
X167110533Y-59880951D01*
X144084819Y-132832857D02*
X143608628Y-133166190D01*
X144084819Y-133404285D02*
X143084819Y-133404285D01*
X143084819Y-133404285D02*
X143084819Y-133023333D01*
X143084819Y-133023333D02*
X143132438Y-132928095D01*
X143132438Y-132928095D02*
X143180057Y-132880476D01*
X143180057Y-132880476D02*
X143275295Y-132832857D01*
X143275295Y-132832857D02*
X143418152Y-132832857D01*
X143418152Y-132832857D02*
X143513390Y-132880476D01*
X143513390Y-132880476D02*
X143561009Y-132928095D01*
X143561009Y-132928095D02*
X143608628Y-133023333D01*
X143608628Y-133023333D02*
X143608628Y-133404285D01*
X144084819Y-131880476D02*
X144084819Y-132451904D01*
X144084819Y-132166190D02*
X143084819Y-132166190D01*
X143084819Y-132166190D02*
X143227676Y-132261428D01*
X143227676Y-132261428D02*
X143322914Y-132356666D01*
X143322914Y-132356666D02*
X143370533Y-132451904D01*
X143084819Y-130975714D02*
X143084819Y-131451904D01*
X143084819Y-131451904D02*
X143561009Y-131499523D01*
X143561009Y-131499523D02*
X143513390Y-131451904D01*
X143513390Y-131451904D02*
X143465771Y-131356666D01*
X143465771Y-131356666D02*
X143465771Y-131118571D01*
X143465771Y-131118571D02*
X143513390Y-131023333D01*
X143513390Y-131023333D02*
X143561009Y-130975714D01*
X143561009Y-130975714D02*
X143656247Y-130928095D01*
X143656247Y-130928095D02*
X143894342Y-130928095D01*
X143894342Y-130928095D02*
X143989580Y-130975714D01*
X143989580Y-130975714D02*
X144037200Y-131023333D01*
X144037200Y-131023333D02*
X144084819Y-131118571D01*
X144084819Y-131118571D02*
X144084819Y-131356666D01*
X144084819Y-131356666D02*
X144037200Y-131451904D01*
X144037200Y-131451904D02*
X143989580Y-131499523D01*
X171857142Y-81324819D02*
X171523809Y-80848628D01*
X171285714Y-81324819D02*
X171285714Y-80324819D01*
X171285714Y-80324819D02*
X171666666Y-80324819D01*
X171666666Y-80324819D02*
X171761904Y-80372438D01*
X171761904Y-80372438D02*
X171809523Y-80420057D01*
X171809523Y-80420057D02*
X171857142Y-80515295D01*
X171857142Y-80515295D02*
X171857142Y-80658152D01*
X171857142Y-80658152D02*
X171809523Y-80753390D01*
X171809523Y-80753390D02*
X171761904Y-80801009D01*
X171761904Y-80801009D02*
X171666666Y-80848628D01*
X171666666Y-80848628D02*
X171285714Y-80848628D01*
X172809523Y-81324819D02*
X172238095Y-81324819D01*
X172523809Y-81324819D02*
X172523809Y-80324819D01*
X172523809Y-80324819D02*
X172428571Y-80467676D01*
X172428571Y-80467676D02*
X172333333Y-80562914D01*
X172333333Y-80562914D02*
X172238095Y-80610533D01*
X173761904Y-81324819D02*
X173190476Y-81324819D01*
X173476190Y-81324819D02*
X173476190Y-80324819D01*
X173476190Y-80324819D02*
X173380952Y-80467676D01*
X173380952Y-80467676D02*
X173285714Y-80562914D01*
X173285714Y-80562914D02*
X173190476Y-80610533D01*
X127034819Y-65833333D02*
X127749104Y-65833333D01*
X127749104Y-65833333D02*
X127891961Y-65880952D01*
X127891961Y-65880952D02*
X127987200Y-65976190D01*
X127987200Y-65976190D02*
X128034819Y-66119047D01*
X128034819Y-66119047D02*
X128034819Y-66214285D01*
X127463390Y-65214285D02*
X127415771Y-65309523D01*
X127415771Y-65309523D02*
X127368152Y-65357142D01*
X127368152Y-65357142D02*
X127272914Y-65404761D01*
X127272914Y-65404761D02*
X127225295Y-65404761D01*
X127225295Y-65404761D02*
X127130057Y-65357142D01*
X127130057Y-65357142D02*
X127082438Y-65309523D01*
X127082438Y-65309523D02*
X127034819Y-65214285D01*
X127034819Y-65214285D02*
X127034819Y-65023809D01*
X127034819Y-65023809D02*
X127082438Y-64928571D01*
X127082438Y-64928571D02*
X127130057Y-64880952D01*
X127130057Y-64880952D02*
X127225295Y-64833333D01*
X127225295Y-64833333D02*
X127272914Y-64833333D01*
X127272914Y-64833333D02*
X127368152Y-64880952D01*
X127368152Y-64880952D02*
X127415771Y-64928571D01*
X127415771Y-64928571D02*
X127463390Y-65023809D01*
X127463390Y-65023809D02*
X127463390Y-65214285D01*
X127463390Y-65214285D02*
X127511009Y-65309523D01*
X127511009Y-65309523D02*
X127558628Y-65357142D01*
X127558628Y-65357142D02*
X127653866Y-65404761D01*
X127653866Y-65404761D02*
X127844342Y-65404761D01*
X127844342Y-65404761D02*
X127939580Y-65357142D01*
X127939580Y-65357142D02*
X127987200Y-65309523D01*
X127987200Y-65309523D02*
X128034819Y-65214285D01*
X128034819Y-65214285D02*
X128034819Y-65023809D01*
X128034819Y-65023809D02*
X127987200Y-64928571D01*
X127987200Y-64928571D02*
X127939580Y-64880952D01*
X127939580Y-64880952D02*
X127844342Y-64833333D01*
X127844342Y-64833333D02*
X127653866Y-64833333D01*
X127653866Y-64833333D02*
X127558628Y-64880952D01*
X127558628Y-64880952D02*
X127511009Y-64928571D01*
X127511009Y-64928571D02*
X127463390Y-65023809D01*
X130991905Y-92914819D02*
X130991905Y-91914819D01*
X130991905Y-91914819D02*
X131230000Y-91914819D01*
X131230000Y-91914819D02*
X131372857Y-91962438D01*
X131372857Y-91962438D02*
X131468095Y-92057676D01*
X131468095Y-92057676D02*
X131515714Y-92152914D01*
X131515714Y-92152914D02*
X131563333Y-92343390D01*
X131563333Y-92343390D02*
X131563333Y-92486247D01*
X131563333Y-92486247D02*
X131515714Y-92676723D01*
X131515714Y-92676723D02*
X131468095Y-92771961D01*
X131468095Y-92771961D02*
X131372857Y-92867200D01*
X131372857Y-92867200D02*
X131230000Y-92914819D01*
X131230000Y-92914819D02*
X130991905Y-92914819D01*
X131944286Y-92010057D02*
X131991905Y-91962438D01*
X131991905Y-91962438D02*
X132087143Y-91914819D01*
X132087143Y-91914819D02*
X132325238Y-91914819D01*
X132325238Y-91914819D02*
X132420476Y-91962438D01*
X132420476Y-91962438D02*
X132468095Y-92010057D01*
X132468095Y-92010057D02*
X132515714Y-92105295D01*
X132515714Y-92105295D02*
X132515714Y-92200533D01*
X132515714Y-92200533D02*
X132468095Y-92343390D01*
X132468095Y-92343390D02*
X131896667Y-92914819D01*
X131896667Y-92914819D02*
X132515714Y-92914819D01*
X154359580Y-60166666D02*
X154407200Y-60214285D01*
X154407200Y-60214285D02*
X154454819Y-60357142D01*
X154454819Y-60357142D02*
X154454819Y-60452380D01*
X154454819Y-60452380D02*
X154407200Y-60595237D01*
X154407200Y-60595237D02*
X154311961Y-60690475D01*
X154311961Y-60690475D02*
X154216723Y-60738094D01*
X154216723Y-60738094D02*
X154026247Y-60785713D01*
X154026247Y-60785713D02*
X153883390Y-60785713D01*
X153883390Y-60785713D02*
X153692914Y-60738094D01*
X153692914Y-60738094D02*
X153597676Y-60690475D01*
X153597676Y-60690475D02*
X153502438Y-60595237D01*
X153502438Y-60595237D02*
X153454819Y-60452380D01*
X153454819Y-60452380D02*
X153454819Y-60357142D01*
X153454819Y-60357142D02*
X153502438Y-60214285D01*
X153502438Y-60214285D02*
X153550057Y-60166666D01*
X153550057Y-59785713D02*
X153502438Y-59738094D01*
X153502438Y-59738094D02*
X153454819Y-59642856D01*
X153454819Y-59642856D02*
X153454819Y-59404761D01*
X153454819Y-59404761D02*
X153502438Y-59309523D01*
X153502438Y-59309523D02*
X153550057Y-59261904D01*
X153550057Y-59261904D02*
X153645295Y-59214285D01*
X153645295Y-59214285D02*
X153740533Y-59214285D01*
X153740533Y-59214285D02*
X153883390Y-59261904D01*
X153883390Y-59261904D02*
X154454819Y-59833332D01*
X154454819Y-59833332D02*
X154454819Y-59214285D01*
X144324819Y-122571904D02*
X145134342Y-122571904D01*
X145134342Y-122571904D02*
X145229580Y-122524285D01*
X145229580Y-122524285D02*
X145277200Y-122476666D01*
X145277200Y-122476666D02*
X145324819Y-122381428D01*
X145324819Y-122381428D02*
X145324819Y-122190952D01*
X145324819Y-122190952D02*
X145277200Y-122095714D01*
X145277200Y-122095714D02*
X145229580Y-122048095D01*
X145229580Y-122048095D02*
X145134342Y-122000476D01*
X145134342Y-122000476D02*
X144324819Y-122000476D01*
X144324819Y-121095714D02*
X144324819Y-121286190D01*
X144324819Y-121286190D02*
X144372438Y-121381428D01*
X144372438Y-121381428D02*
X144420057Y-121429047D01*
X144420057Y-121429047D02*
X144562914Y-121524285D01*
X144562914Y-121524285D02*
X144753390Y-121571904D01*
X144753390Y-121571904D02*
X145134342Y-121571904D01*
X145134342Y-121571904D02*
X145229580Y-121524285D01*
X145229580Y-121524285D02*
X145277200Y-121476666D01*
X145277200Y-121476666D02*
X145324819Y-121381428D01*
X145324819Y-121381428D02*
X145324819Y-121190952D01*
X145324819Y-121190952D02*
X145277200Y-121095714D01*
X145277200Y-121095714D02*
X145229580Y-121048095D01*
X145229580Y-121048095D02*
X145134342Y-121000476D01*
X145134342Y-121000476D02*
X144896247Y-121000476D01*
X144896247Y-121000476D02*
X144801009Y-121048095D01*
X144801009Y-121048095D02*
X144753390Y-121095714D01*
X144753390Y-121095714D02*
X144705771Y-121190952D01*
X144705771Y-121190952D02*
X144705771Y-121381428D01*
X144705771Y-121381428D02*
X144753390Y-121476666D01*
X144753390Y-121476666D02*
X144801009Y-121524285D01*
X144801009Y-121524285D02*
X144896247Y-121571904D01*
X130991905Y-102914819D02*
X130991905Y-101914819D01*
X130991905Y-101914819D02*
X131230000Y-101914819D01*
X131230000Y-101914819D02*
X131372857Y-101962438D01*
X131372857Y-101962438D02*
X131468095Y-102057676D01*
X131468095Y-102057676D02*
X131515714Y-102152914D01*
X131515714Y-102152914D02*
X131563333Y-102343390D01*
X131563333Y-102343390D02*
X131563333Y-102486247D01*
X131563333Y-102486247D02*
X131515714Y-102676723D01*
X131515714Y-102676723D02*
X131468095Y-102771961D01*
X131468095Y-102771961D02*
X131372857Y-102867200D01*
X131372857Y-102867200D02*
X131230000Y-102914819D01*
X131230000Y-102914819D02*
X130991905Y-102914819D01*
X131896667Y-101914819D02*
X132515714Y-101914819D01*
X132515714Y-101914819D02*
X132182381Y-102295771D01*
X132182381Y-102295771D02*
X132325238Y-102295771D01*
X132325238Y-102295771D02*
X132420476Y-102343390D01*
X132420476Y-102343390D02*
X132468095Y-102391009D01*
X132468095Y-102391009D02*
X132515714Y-102486247D01*
X132515714Y-102486247D02*
X132515714Y-102724342D01*
X132515714Y-102724342D02*
X132468095Y-102819580D01*
X132468095Y-102819580D02*
X132420476Y-102867200D01*
X132420476Y-102867200D02*
X132325238Y-102914819D01*
X132325238Y-102914819D02*
X132039524Y-102914819D01*
X132039524Y-102914819D02*
X131944286Y-102867200D01*
X131944286Y-102867200D02*
X131896667Y-102819580D01*
X144084819Y-91476666D02*
X143608628Y-91809999D01*
X144084819Y-92048094D02*
X143084819Y-92048094D01*
X143084819Y-92048094D02*
X143084819Y-91667142D01*
X143084819Y-91667142D02*
X143132438Y-91571904D01*
X143132438Y-91571904D02*
X143180057Y-91524285D01*
X143180057Y-91524285D02*
X143275295Y-91476666D01*
X143275295Y-91476666D02*
X143418152Y-91476666D01*
X143418152Y-91476666D02*
X143513390Y-91524285D01*
X143513390Y-91524285D02*
X143561009Y-91571904D01*
X143561009Y-91571904D02*
X143608628Y-91667142D01*
X143608628Y-91667142D02*
X143608628Y-92048094D01*
X143418152Y-90619523D02*
X144084819Y-90619523D01*
X143037200Y-90857618D02*
X143751485Y-91095713D01*
X143751485Y-91095713D02*
X143751485Y-90476666D01*
X130951905Y-82914819D02*
X130951905Y-81914819D01*
X130951905Y-81914819D02*
X131190000Y-81914819D01*
X131190000Y-81914819D02*
X131332857Y-81962438D01*
X131332857Y-81962438D02*
X131428095Y-82057676D01*
X131428095Y-82057676D02*
X131475714Y-82152914D01*
X131475714Y-82152914D02*
X131523333Y-82343390D01*
X131523333Y-82343390D02*
X131523333Y-82486247D01*
X131523333Y-82486247D02*
X131475714Y-82676723D01*
X131475714Y-82676723D02*
X131428095Y-82771961D01*
X131428095Y-82771961D02*
X131332857Y-82867200D01*
X131332857Y-82867200D02*
X131190000Y-82914819D01*
X131190000Y-82914819D02*
X130951905Y-82914819D01*
X132475714Y-82914819D02*
X131904286Y-82914819D01*
X132190000Y-82914819D02*
X132190000Y-81914819D01*
X132190000Y-81914819D02*
X132094762Y-82057676D01*
X132094762Y-82057676D02*
X131999524Y-82152914D01*
X131999524Y-82152914D02*
X131904286Y-82200533D01*
X144324819Y-92071904D02*
X145134342Y-92071904D01*
X145134342Y-92071904D02*
X145229580Y-92024285D01*
X145229580Y-92024285D02*
X145277200Y-91976666D01*
X145277200Y-91976666D02*
X145324819Y-91881428D01*
X145324819Y-91881428D02*
X145324819Y-91690952D01*
X145324819Y-91690952D02*
X145277200Y-91595714D01*
X145277200Y-91595714D02*
X145229580Y-91548095D01*
X145229580Y-91548095D02*
X145134342Y-91500476D01*
X145134342Y-91500476D02*
X144324819Y-91500476D01*
X144324819Y-91119523D02*
X144324819Y-90500476D01*
X144324819Y-90500476D02*
X144705771Y-90833809D01*
X144705771Y-90833809D02*
X144705771Y-90690952D01*
X144705771Y-90690952D02*
X144753390Y-90595714D01*
X144753390Y-90595714D02*
X144801009Y-90548095D01*
X144801009Y-90548095D02*
X144896247Y-90500476D01*
X144896247Y-90500476D02*
X145134342Y-90500476D01*
X145134342Y-90500476D02*
X145229580Y-90548095D01*
X145229580Y-90548095D02*
X145277200Y-90595714D01*
X145277200Y-90595714D02*
X145324819Y-90690952D01*
X145324819Y-90690952D02*
X145324819Y-90976666D01*
X145324819Y-90976666D02*
X145277200Y-91071904D01*
X145277200Y-91071904D02*
X145229580Y-91119523D01*
X171857142Y-71584819D02*
X171523809Y-71108628D01*
X171285714Y-71584819D02*
X171285714Y-70584819D01*
X171285714Y-70584819D02*
X171666666Y-70584819D01*
X171666666Y-70584819D02*
X171761904Y-70632438D01*
X171761904Y-70632438D02*
X171809523Y-70680057D01*
X171809523Y-70680057D02*
X171857142Y-70775295D01*
X171857142Y-70775295D02*
X171857142Y-70918152D01*
X171857142Y-70918152D02*
X171809523Y-71013390D01*
X171809523Y-71013390D02*
X171761904Y-71061009D01*
X171761904Y-71061009D02*
X171666666Y-71108628D01*
X171666666Y-71108628D02*
X171285714Y-71108628D01*
X172809523Y-71584819D02*
X172238095Y-71584819D01*
X172523809Y-71584819D02*
X172523809Y-70584819D01*
X172523809Y-70584819D02*
X172428571Y-70727676D01*
X172428571Y-70727676D02*
X172333333Y-70822914D01*
X172333333Y-70822914D02*
X172238095Y-70870533D01*
X173428571Y-70584819D02*
X173523809Y-70584819D01*
X173523809Y-70584819D02*
X173619047Y-70632438D01*
X173619047Y-70632438D02*
X173666666Y-70680057D01*
X173666666Y-70680057D02*
X173714285Y-70775295D01*
X173714285Y-70775295D02*
X173761904Y-70965771D01*
X173761904Y-70965771D02*
X173761904Y-71203866D01*
X173761904Y-71203866D02*
X173714285Y-71394342D01*
X173714285Y-71394342D02*
X173666666Y-71489580D01*
X173666666Y-71489580D02*
X173619047Y-71537200D01*
X173619047Y-71537200D02*
X173523809Y-71584819D01*
X173523809Y-71584819D02*
X173428571Y-71584819D01*
X173428571Y-71584819D02*
X173333333Y-71537200D01*
X173333333Y-71537200D02*
X173285714Y-71489580D01*
X173285714Y-71489580D02*
X173238095Y-71394342D01*
X173238095Y-71394342D02*
X173190476Y-71203866D01*
X173190476Y-71203866D02*
X173190476Y-70965771D01*
X173190476Y-70965771D02*
X173238095Y-70775295D01*
X173238095Y-70775295D02*
X173285714Y-70680057D01*
X173285714Y-70680057D02*
X173333333Y-70632438D01*
X173333333Y-70632438D02*
X173428571Y-70584819D01*
X132854819Y-70748094D02*
X131854819Y-70748094D01*
X131854819Y-70748094D02*
X131854819Y-70509999D01*
X131854819Y-70509999D02*
X131902438Y-70367142D01*
X131902438Y-70367142D02*
X131997676Y-70271904D01*
X131997676Y-70271904D02*
X132092914Y-70224285D01*
X132092914Y-70224285D02*
X132283390Y-70176666D01*
X132283390Y-70176666D02*
X132426247Y-70176666D01*
X132426247Y-70176666D02*
X132616723Y-70224285D01*
X132616723Y-70224285D02*
X132711961Y-70271904D01*
X132711961Y-70271904D02*
X132807200Y-70367142D01*
X132807200Y-70367142D02*
X132854819Y-70509999D01*
X132854819Y-70509999D02*
X132854819Y-70748094D01*
X131854819Y-69271904D02*
X131854819Y-69748094D01*
X131854819Y-69748094D02*
X132331009Y-69795713D01*
X132331009Y-69795713D02*
X132283390Y-69748094D01*
X132283390Y-69748094D02*
X132235771Y-69652856D01*
X132235771Y-69652856D02*
X132235771Y-69414761D01*
X132235771Y-69414761D02*
X132283390Y-69319523D01*
X132283390Y-69319523D02*
X132331009Y-69271904D01*
X132331009Y-69271904D02*
X132426247Y-69224285D01*
X132426247Y-69224285D02*
X132664342Y-69224285D01*
X132664342Y-69224285D02*
X132759580Y-69271904D01*
X132759580Y-69271904D02*
X132807200Y-69319523D01*
X132807200Y-69319523D02*
X132854819Y-69414761D01*
X132854819Y-69414761D02*
X132854819Y-69652856D01*
X132854819Y-69652856D02*
X132807200Y-69748094D01*
X132807200Y-69748094D02*
X132759580Y-69795713D01*
X134584819Y-101476666D02*
X134108628Y-101809999D01*
X134584819Y-102048094D02*
X133584819Y-102048094D01*
X133584819Y-102048094D02*
X133584819Y-101667142D01*
X133584819Y-101667142D02*
X133632438Y-101571904D01*
X133632438Y-101571904D02*
X133680057Y-101524285D01*
X133680057Y-101524285D02*
X133775295Y-101476666D01*
X133775295Y-101476666D02*
X133918152Y-101476666D01*
X133918152Y-101476666D02*
X134013390Y-101524285D01*
X134013390Y-101524285D02*
X134061009Y-101571904D01*
X134061009Y-101571904D02*
X134108628Y-101667142D01*
X134108628Y-101667142D02*
X134108628Y-102048094D01*
X133584819Y-100571904D02*
X133584819Y-101048094D01*
X133584819Y-101048094D02*
X134061009Y-101095713D01*
X134061009Y-101095713D02*
X134013390Y-101048094D01*
X134013390Y-101048094D02*
X133965771Y-100952856D01*
X133965771Y-100952856D02*
X133965771Y-100714761D01*
X133965771Y-100714761D02*
X134013390Y-100619523D01*
X134013390Y-100619523D02*
X134061009Y-100571904D01*
X134061009Y-100571904D02*
X134156247Y-100524285D01*
X134156247Y-100524285D02*
X134394342Y-100524285D01*
X134394342Y-100524285D02*
X134489580Y-100571904D01*
X134489580Y-100571904D02*
X134537200Y-100619523D01*
X134537200Y-100619523D02*
X134584819Y-100714761D01*
X134584819Y-100714761D02*
X134584819Y-100952856D01*
X134584819Y-100952856D02*
X134537200Y-101048094D01*
X134537200Y-101048094D02*
X134489580Y-101095713D01*
X130991905Y-112914819D02*
X130991905Y-111914819D01*
X130991905Y-111914819D02*
X131230000Y-111914819D01*
X131230000Y-111914819D02*
X131372857Y-111962438D01*
X131372857Y-111962438D02*
X131468095Y-112057676D01*
X131468095Y-112057676D02*
X131515714Y-112152914D01*
X131515714Y-112152914D02*
X131563333Y-112343390D01*
X131563333Y-112343390D02*
X131563333Y-112486247D01*
X131563333Y-112486247D02*
X131515714Y-112676723D01*
X131515714Y-112676723D02*
X131468095Y-112771961D01*
X131468095Y-112771961D02*
X131372857Y-112867200D01*
X131372857Y-112867200D02*
X131230000Y-112914819D01*
X131230000Y-112914819D02*
X130991905Y-112914819D01*
X132420476Y-112248152D02*
X132420476Y-112914819D01*
X132182381Y-111867200D02*
X131944286Y-112581485D01*
X131944286Y-112581485D02*
X132563333Y-112581485D01*
X144084819Y-111476666D02*
X143608628Y-111809999D01*
X144084819Y-112048094D02*
X143084819Y-112048094D01*
X143084819Y-112048094D02*
X143084819Y-111667142D01*
X143084819Y-111667142D02*
X143132438Y-111571904D01*
X143132438Y-111571904D02*
X143180057Y-111524285D01*
X143180057Y-111524285D02*
X143275295Y-111476666D01*
X143275295Y-111476666D02*
X143418152Y-111476666D01*
X143418152Y-111476666D02*
X143513390Y-111524285D01*
X143513390Y-111524285D02*
X143561009Y-111571904D01*
X143561009Y-111571904D02*
X143608628Y-111667142D01*
X143608628Y-111667142D02*
X143608628Y-112048094D01*
X143513390Y-110905237D02*
X143465771Y-111000475D01*
X143465771Y-111000475D02*
X143418152Y-111048094D01*
X143418152Y-111048094D02*
X143322914Y-111095713D01*
X143322914Y-111095713D02*
X143275295Y-111095713D01*
X143275295Y-111095713D02*
X143180057Y-111048094D01*
X143180057Y-111048094D02*
X143132438Y-111000475D01*
X143132438Y-111000475D02*
X143084819Y-110905237D01*
X143084819Y-110905237D02*
X143084819Y-110714761D01*
X143084819Y-110714761D02*
X143132438Y-110619523D01*
X143132438Y-110619523D02*
X143180057Y-110571904D01*
X143180057Y-110571904D02*
X143275295Y-110524285D01*
X143275295Y-110524285D02*
X143322914Y-110524285D01*
X143322914Y-110524285D02*
X143418152Y-110571904D01*
X143418152Y-110571904D02*
X143465771Y-110619523D01*
X143465771Y-110619523D02*
X143513390Y-110714761D01*
X143513390Y-110714761D02*
X143513390Y-110905237D01*
X143513390Y-110905237D02*
X143561009Y-111000475D01*
X143561009Y-111000475D02*
X143608628Y-111048094D01*
X143608628Y-111048094D02*
X143703866Y-111095713D01*
X143703866Y-111095713D02*
X143894342Y-111095713D01*
X143894342Y-111095713D02*
X143989580Y-111048094D01*
X143989580Y-111048094D02*
X144037200Y-111000475D01*
X144037200Y-111000475D02*
X144084819Y-110905237D01*
X144084819Y-110905237D02*
X144084819Y-110714761D01*
X144084819Y-110714761D02*
X144037200Y-110619523D01*
X144037200Y-110619523D02*
X143989580Y-110571904D01*
X143989580Y-110571904D02*
X143894342Y-110524285D01*
X143894342Y-110524285D02*
X143703866Y-110524285D01*
X143703866Y-110524285D02*
X143608628Y-110571904D01*
X143608628Y-110571904D02*
X143561009Y-110619523D01*
X143561009Y-110619523D02*
X143513390Y-110714761D01*
X171748095Y-58324819D02*
X171748095Y-59134342D01*
X171748095Y-59134342D02*
X171795714Y-59229580D01*
X171795714Y-59229580D02*
X171843333Y-59277200D01*
X171843333Y-59277200D02*
X171938571Y-59324819D01*
X171938571Y-59324819D02*
X172129047Y-59324819D01*
X172129047Y-59324819D02*
X172224285Y-59277200D01*
X172224285Y-59277200D02*
X172271904Y-59229580D01*
X172271904Y-59229580D02*
X172319523Y-59134342D01*
X172319523Y-59134342D02*
X172319523Y-58324819D01*
X172700476Y-58324819D02*
X173367142Y-58324819D01*
X173367142Y-58324819D02*
X172938571Y-59324819D01*
X134584819Y-132832857D02*
X134108628Y-133166190D01*
X134584819Y-133404285D02*
X133584819Y-133404285D01*
X133584819Y-133404285D02*
X133584819Y-133023333D01*
X133584819Y-133023333D02*
X133632438Y-132928095D01*
X133632438Y-132928095D02*
X133680057Y-132880476D01*
X133680057Y-132880476D02*
X133775295Y-132832857D01*
X133775295Y-132832857D02*
X133918152Y-132832857D01*
X133918152Y-132832857D02*
X134013390Y-132880476D01*
X134013390Y-132880476D02*
X134061009Y-132928095D01*
X134061009Y-132928095D02*
X134108628Y-133023333D01*
X134108628Y-133023333D02*
X134108628Y-133404285D01*
X134584819Y-131880476D02*
X134584819Y-132451904D01*
X134584819Y-132166190D02*
X133584819Y-132166190D01*
X133584819Y-132166190D02*
X133727676Y-132261428D01*
X133727676Y-132261428D02*
X133822914Y-132356666D01*
X133822914Y-132356666D02*
X133870533Y-132451904D01*
X133584819Y-131547142D02*
X133584819Y-130928095D01*
X133584819Y-130928095D02*
X133965771Y-131261428D01*
X133965771Y-131261428D02*
X133965771Y-131118571D01*
X133965771Y-131118571D02*
X134013390Y-131023333D01*
X134013390Y-131023333D02*
X134061009Y-130975714D01*
X134061009Y-130975714D02*
X134156247Y-130928095D01*
X134156247Y-130928095D02*
X134394342Y-130928095D01*
X134394342Y-130928095D02*
X134489580Y-130975714D01*
X134489580Y-130975714D02*
X134537200Y-131023333D01*
X134537200Y-131023333D02*
X134584819Y-131118571D01*
X134584819Y-131118571D02*
X134584819Y-131404285D01*
X134584819Y-131404285D02*
X134537200Y-131499523D01*
X134537200Y-131499523D02*
X134489580Y-131547142D01*
X154233333Y-79609580D02*
X154185714Y-79657200D01*
X154185714Y-79657200D02*
X154042857Y-79704819D01*
X154042857Y-79704819D02*
X153947619Y-79704819D01*
X153947619Y-79704819D02*
X153804762Y-79657200D01*
X153804762Y-79657200D02*
X153709524Y-79561961D01*
X153709524Y-79561961D02*
X153661905Y-79466723D01*
X153661905Y-79466723D02*
X153614286Y-79276247D01*
X153614286Y-79276247D02*
X153614286Y-79133390D01*
X153614286Y-79133390D02*
X153661905Y-78942914D01*
X153661905Y-78942914D02*
X153709524Y-78847676D01*
X153709524Y-78847676D02*
X153804762Y-78752438D01*
X153804762Y-78752438D02*
X153947619Y-78704819D01*
X153947619Y-78704819D02*
X154042857Y-78704819D01*
X154042857Y-78704819D02*
X154185714Y-78752438D01*
X154185714Y-78752438D02*
X154233333Y-78800057D01*
X154566667Y-78704819D02*
X155185714Y-78704819D01*
X155185714Y-78704819D02*
X154852381Y-79085771D01*
X154852381Y-79085771D02*
X154995238Y-79085771D01*
X154995238Y-79085771D02*
X155090476Y-79133390D01*
X155090476Y-79133390D02*
X155138095Y-79181009D01*
X155138095Y-79181009D02*
X155185714Y-79276247D01*
X155185714Y-79276247D02*
X155185714Y-79514342D01*
X155185714Y-79514342D02*
X155138095Y-79609580D01*
X155138095Y-79609580D02*
X155090476Y-79657200D01*
X155090476Y-79657200D02*
X154995238Y-79704819D01*
X154995238Y-79704819D02*
X154709524Y-79704819D01*
X154709524Y-79704819D02*
X154614286Y-79657200D01*
X154614286Y-79657200D02*
X154566667Y-79609580D01*
X144084819Y-122332857D02*
X143608628Y-122666190D01*
X144084819Y-122904285D02*
X143084819Y-122904285D01*
X143084819Y-122904285D02*
X143084819Y-122523333D01*
X143084819Y-122523333D02*
X143132438Y-122428095D01*
X143132438Y-122428095D02*
X143180057Y-122380476D01*
X143180057Y-122380476D02*
X143275295Y-122332857D01*
X143275295Y-122332857D02*
X143418152Y-122332857D01*
X143418152Y-122332857D02*
X143513390Y-122380476D01*
X143513390Y-122380476D02*
X143561009Y-122428095D01*
X143561009Y-122428095D02*
X143608628Y-122523333D01*
X143608628Y-122523333D02*
X143608628Y-122904285D01*
X144084819Y-121380476D02*
X144084819Y-121951904D01*
X144084819Y-121666190D02*
X143084819Y-121666190D01*
X143084819Y-121666190D02*
X143227676Y-121761428D01*
X143227676Y-121761428D02*
X143322914Y-121856666D01*
X143322914Y-121856666D02*
X143370533Y-121951904D01*
X143418152Y-120523333D02*
X144084819Y-120523333D01*
X143037200Y-120761428D02*
X143751485Y-120999523D01*
X143751485Y-120999523D02*
X143751485Y-120380476D01*
X130991905Y-132914819D02*
X130991905Y-131914819D01*
X130991905Y-131914819D02*
X131230000Y-131914819D01*
X131230000Y-131914819D02*
X131372857Y-131962438D01*
X131372857Y-131962438D02*
X131468095Y-132057676D01*
X131468095Y-132057676D02*
X131515714Y-132152914D01*
X131515714Y-132152914D02*
X131563333Y-132343390D01*
X131563333Y-132343390D02*
X131563333Y-132486247D01*
X131563333Y-132486247D02*
X131515714Y-132676723D01*
X131515714Y-132676723D02*
X131468095Y-132771961D01*
X131468095Y-132771961D02*
X131372857Y-132867200D01*
X131372857Y-132867200D02*
X131230000Y-132914819D01*
X131230000Y-132914819D02*
X130991905Y-132914819D01*
X132134762Y-132343390D02*
X132039524Y-132295771D01*
X132039524Y-132295771D02*
X131991905Y-132248152D01*
X131991905Y-132248152D02*
X131944286Y-132152914D01*
X131944286Y-132152914D02*
X131944286Y-132105295D01*
X131944286Y-132105295D02*
X131991905Y-132010057D01*
X131991905Y-132010057D02*
X132039524Y-131962438D01*
X132039524Y-131962438D02*
X132134762Y-131914819D01*
X132134762Y-131914819D02*
X132325238Y-131914819D01*
X132325238Y-131914819D02*
X132420476Y-131962438D01*
X132420476Y-131962438D02*
X132468095Y-132010057D01*
X132468095Y-132010057D02*
X132515714Y-132105295D01*
X132515714Y-132105295D02*
X132515714Y-132152914D01*
X132515714Y-132152914D02*
X132468095Y-132248152D01*
X132468095Y-132248152D02*
X132420476Y-132295771D01*
X132420476Y-132295771D02*
X132325238Y-132343390D01*
X132325238Y-132343390D02*
X132134762Y-132343390D01*
X132134762Y-132343390D02*
X132039524Y-132391009D01*
X132039524Y-132391009D02*
X131991905Y-132438628D01*
X131991905Y-132438628D02*
X131944286Y-132533866D01*
X131944286Y-132533866D02*
X131944286Y-132724342D01*
X131944286Y-132724342D02*
X131991905Y-132819580D01*
X131991905Y-132819580D02*
X132039524Y-132867200D01*
X132039524Y-132867200D02*
X132134762Y-132914819D01*
X132134762Y-132914819D02*
X132325238Y-132914819D01*
X132325238Y-132914819D02*
X132420476Y-132867200D01*
X132420476Y-132867200D02*
X132468095Y-132819580D01*
X132468095Y-132819580D02*
X132515714Y-132724342D01*
X132515714Y-132724342D02*
X132515714Y-132533866D01*
X132515714Y-132533866D02*
X132468095Y-132438628D01*
X132468095Y-132438628D02*
X132420476Y-132391009D01*
X132420476Y-132391009D02*
X132325238Y-132343390D01*
X170883095Y-143629819D02*
X170883095Y-144439342D01*
X170883095Y-144439342D02*
X170930714Y-144534580D01*
X170930714Y-144534580D02*
X170978333Y-144582200D01*
X170978333Y-144582200D02*
X171073571Y-144629819D01*
X171073571Y-144629819D02*
X171264047Y-144629819D01*
X171264047Y-144629819D02*
X171359285Y-144582200D01*
X171359285Y-144582200D02*
X171406904Y-144534580D01*
X171406904Y-144534580D02*
X171454523Y-144439342D01*
X171454523Y-144439342D02*
X171454523Y-143629819D01*
X172454523Y-144629819D02*
X171883095Y-144629819D01*
X172168809Y-144629819D02*
X172168809Y-143629819D01*
X172168809Y-143629819D02*
X172073571Y-143772676D01*
X172073571Y-143772676D02*
X171978333Y-143867914D01*
X171978333Y-143867914D02*
X171883095Y-143915533D01*
X155761905Y-69924819D02*
X155761905Y-68924819D01*
X155761905Y-68924819D02*
X156000000Y-68924819D01*
X156000000Y-68924819D02*
X156142857Y-68972438D01*
X156142857Y-68972438D02*
X156238095Y-69067676D01*
X156238095Y-69067676D02*
X156285714Y-69162914D01*
X156285714Y-69162914D02*
X156333333Y-69353390D01*
X156333333Y-69353390D02*
X156333333Y-69496247D01*
X156333333Y-69496247D02*
X156285714Y-69686723D01*
X156285714Y-69686723D02*
X156238095Y-69781961D01*
X156238095Y-69781961D02*
X156142857Y-69877200D01*
X156142857Y-69877200D02*
X156000000Y-69924819D01*
X156000000Y-69924819D02*
X155761905Y-69924819D01*
X157190476Y-68924819D02*
X157000000Y-68924819D01*
X157000000Y-68924819D02*
X156904762Y-68972438D01*
X156904762Y-68972438D02*
X156857143Y-69020057D01*
X156857143Y-69020057D02*
X156761905Y-69162914D01*
X156761905Y-69162914D02*
X156714286Y-69353390D01*
X156714286Y-69353390D02*
X156714286Y-69734342D01*
X156714286Y-69734342D02*
X156761905Y-69829580D01*
X156761905Y-69829580D02*
X156809524Y-69877200D01*
X156809524Y-69877200D02*
X156904762Y-69924819D01*
X156904762Y-69924819D02*
X157095238Y-69924819D01*
X157095238Y-69924819D02*
X157190476Y-69877200D01*
X157190476Y-69877200D02*
X157238095Y-69829580D01*
X157238095Y-69829580D02*
X157285714Y-69734342D01*
X157285714Y-69734342D02*
X157285714Y-69496247D01*
X157285714Y-69496247D02*
X157238095Y-69401009D01*
X157238095Y-69401009D02*
X157190476Y-69353390D01*
X157190476Y-69353390D02*
X157095238Y-69305771D01*
X157095238Y-69305771D02*
X156904762Y-69305771D01*
X156904762Y-69305771D02*
X156809524Y-69353390D01*
X156809524Y-69353390D02*
X156761905Y-69401009D01*
X156761905Y-69401009D02*
X156714286Y-69496247D01*
X161318095Y-69554819D02*
X161318095Y-68554819D01*
X161889523Y-69554819D02*
X161460952Y-68983390D01*
X161889523Y-68554819D02*
X161318095Y-69126247D01*
X144284819Y-81451904D02*
X145094342Y-81451904D01*
X145094342Y-81451904D02*
X145189580Y-81404285D01*
X145189580Y-81404285D02*
X145237200Y-81356666D01*
X145237200Y-81356666D02*
X145284819Y-81261428D01*
X145284819Y-81261428D02*
X145284819Y-81070952D01*
X145284819Y-81070952D02*
X145237200Y-80975714D01*
X145237200Y-80975714D02*
X145189580Y-80928095D01*
X145189580Y-80928095D02*
X145094342Y-80880476D01*
X145094342Y-80880476D02*
X144284819Y-80880476D01*
X144380057Y-80451904D02*
X144332438Y-80404285D01*
X144332438Y-80404285D02*
X144284819Y-80309047D01*
X144284819Y-80309047D02*
X144284819Y-80070952D01*
X144284819Y-80070952D02*
X144332438Y-79975714D01*
X144332438Y-79975714D02*
X144380057Y-79928095D01*
X144380057Y-79928095D02*
X144475295Y-79880476D01*
X144475295Y-79880476D02*
X144570533Y-79880476D01*
X144570533Y-79880476D02*
X144713390Y-79928095D01*
X144713390Y-79928095D02*
X145284819Y-80499523D01*
X145284819Y-80499523D02*
X145284819Y-79880476D01*
X134584819Y-91476666D02*
X134108628Y-91809999D01*
X134584819Y-92048094D02*
X133584819Y-92048094D01*
X133584819Y-92048094D02*
X133584819Y-91667142D01*
X133584819Y-91667142D02*
X133632438Y-91571904D01*
X133632438Y-91571904D02*
X133680057Y-91524285D01*
X133680057Y-91524285D02*
X133775295Y-91476666D01*
X133775295Y-91476666D02*
X133918152Y-91476666D01*
X133918152Y-91476666D02*
X134013390Y-91524285D01*
X134013390Y-91524285D02*
X134061009Y-91571904D01*
X134061009Y-91571904D02*
X134108628Y-91667142D01*
X134108628Y-91667142D02*
X134108628Y-92048094D01*
X133584819Y-91143332D02*
X133584819Y-90524285D01*
X133584819Y-90524285D02*
X133965771Y-90857618D01*
X133965771Y-90857618D02*
X133965771Y-90714761D01*
X133965771Y-90714761D02*
X134013390Y-90619523D01*
X134013390Y-90619523D02*
X134061009Y-90571904D01*
X134061009Y-90571904D02*
X134156247Y-90524285D01*
X134156247Y-90524285D02*
X134394342Y-90524285D01*
X134394342Y-90524285D02*
X134489580Y-90571904D01*
X134489580Y-90571904D02*
X134537200Y-90619523D01*
X134537200Y-90619523D02*
X134584819Y-90714761D01*
X134584819Y-90714761D02*
X134584819Y-91000475D01*
X134584819Y-91000475D02*
X134537200Y-91095713D01*
X134537200Y-91095713D02*
X134489580Y-91143332D01*
X134584819Y-81476666D02*
X134108628Y-81809999D01*
X134584819Y-82048094D02*
X133584819Y-82048094D01*
X133584819Y-82048094D02*
X133584819Y-81667142D01*
X133584819Y-81667142D02*
X133632438Y-81571904D01*
X133632438Y-81571904D02*
X133680057Y-81524285D01*
X133680057Y-81524285D02*
X133775295Y-81476666D01*
X133775295Y-81476666D02*
X133918152Y-81476666D01*
X133918152Y-81476666D02*
X134013390Y-81524285D01*
X134013390Y-81524285D02*
X134061009Y-81571904D01*
X134061009Y-81571904D02*
X134108628Y-81667142D01*
X134108628Y-81667142D02*
X134108628Y-82048094D01*
X134584819Y-80524285D02*
X134584819Y-81095713D01*
X134584819Y-80809999D02*
X133584819Y-80809999D01*
X133584819Y-80809999D02*
X133727676Y-80905237D01*
X133727676Y-80905237D02*
X133822914Y-81000475D01*
X133822914Y-81000475D02*
X133870533Y-81095713D01*
X144284819Y-112271904D02*
X145094342Y-112271904D01*
X145094342Y-112271904D02*
X145189580Y-112224285D01*
X145189580Y-112224285D02*
X145237200Y-112176666D01*
X145237200Y-112176666D02*
X145284819Y-112081428D01*
X145284819Y-112081428D02*
X145284819Y-111890952D01*
X145284819Y-111890952D02*
X145237200Y-111795714D01*
X145237200Y-111795714D02*
X145189580Y-111748095D01*
X145189580Y-111748095D02*
X145094342Y-111700476D01*
X145094342Y-111700476D02*
X144284819Y-111700476D01*
X144284819Y-110748095D02*
X144284819Y-111224285D01*
X144284819Y-111224285D02*
X144761009Y-111271904D01*
X144761009Y-111271904D02*
X144713390Y-111224285D01*
X144713390Y-111224285D02*
X144665771Y-111129047D01*
X144665771Y-111129047D02*
X144665771Y-110890952D01*
X144665771Y-110890952D02*
X144713390Y-110795714D01*
X144713390Y-110795714D02*
X144761009Y-110748095D01*
X144761009Y-110748095D02*
X144856247Y-110700476D01*
X144856247Y-110700476D02*
X145094342Y-110700476D01*
X145094342Y-110700476D02*
X145189580Y-110748095D01*
X145189580Y-110748095D02*
X145237200Y-110795714D01*
X145237200Y-110795714D02*
X145284819Y-110890952D01*
X145284819Y-110890952D02*
X145284819Y-111129047D01*
X145284819Y-111129047D02*
X145237200Y-111224285D01*
X145237200Y-111224285D02*
X145189580Y-111271904D01*
X163084819Y-74166666D02*
X162608628Y-74499999D01*
X163084819Y-74738094D02*
X162084819Y-74738094D01*
X162084819Y-74738094D02*
X162084819Y-74357142D01*
X162084819Y-74357142D02*
X162132438Y-74261904D01*
X162132438Y-74261904D02*
X162180057Y-74214285D01*
X162180057Y-74214285D02*
X162275295Y-74166666D01*
X162275295Y-74166666D02*
X162418152Y-74166666D01*
X162418152Y-74166666D02*
X162513390Y-74214285D01*
X162513390Y-74214285D02*
X162561009Y-74261904D01*
X162561009Y-74261904D02*
X162608628Y-74357142D01*
X162608628Y-74357142D02*
X162608628Y-74738094D01*
X163084819Y-73690475D02*
X163084819Y-73499999D01*
X163084819Y-73499999D02*
X163037200Y-73404761D01*
X163037200Y-73404761D02*
X162989580Y-73357142D01*
X162989580Y-73357142D02*
X162846723Y-73261904D01*
X162846723Y-73261904D02*
X162656247Y-73214285D01*
X162656247Y-73214285D02*
X162275295Y-73214285D01*
X162275295Y-73214285D02*
X162180057Y-73261904D01*
X162180057Y-73261904D02*
X162132438Y-73309523D01*
X162132438Y-73309523D02*
X162084819Y-73404761D01*
X162084819Y-73404761D02*
X162084819Y-73595237D01*
X162084819Y-73595237D02*
X162132438Y-73690475D01*
X162132438Y-73690475D02*
X162180057Y-73738094D01*
X162180057Y-73738094D02*
X162275295Y-73785713D01*
X162275295Y-73785713D02*
X162513390Y-73785713D01*
X162513390Y-73785713D02*
X162608628Y-73738094D01*
X162608628Y-73738094D02*
X162656247Y-73690475D01*
X162656247Y-73690475D02*
X162703866Y-73595237D01*
X162703866Y-73595237D02*
X162703866Y-73404761D01*
X162703866Y-73404761D02*
X162656247Y-73309523D01*
X162656247Y-73309523D02*
X162608628Y-73261904D01*
X162608628Y-73261904D02*
X162513390Y-73214285D01*
X144084819Y-101476666D02*
X143608628Y-101809999D01*
X144084819Y-102048094D02*
X143084819Y-102048094D01*
X143084819Y-102048094D02*
X143084819Y-101667142D01*
X143084819Y-101667142D02*
X143132438Y-101571904D01*
X143132438Y-101571904D02*
X143180057Y-101524285D01*
X143180057Y-101524285D02*
X143275295Y-101476666D01*
X143275295Y-101476666D02*
X143418152Y-101476666D01*
X143418152Y-101476666D02*
X143513390Y-101524285D01*
X143513390Y-101524285D02*
X143561009Y-101571904D01*
X143561009Y-101571904D02*
X143608628Y-101667142D01*
X143608628Y-101667142D02*
X143608628Y-102048094D01*
X143084819Y-100619523D02*
X143084819Y-100809999D01*
X143084819Y-100809999D02*
X143132438Y-100905237D01*
X143132438Y-100905237D02*
X143180057Y-100952856D01*
X143180057Y-100952856D02*
X143322914Y-101048094D01*
X143322914Y-101048094D02*
X143513390Y-101095713D01*
X143513390Y-101095713D02*
X143894342Y-101095713D01*
X143894342Y-101095713D02*
X143989580Y-101048094D01*
X143989580Y-101048094D02*
X144037200Y-101000475D01*
X144037200Y-101000475D02*
X144084819Y-100905237D01*
X144084819Y-100905237D02*
X144084819Y-100714761D01*
X144084819Y-100714761D02*
X144037200Y-100619523D01*
X144037200Y-100619523D02*
X143989580Y-100571904D01*
X143989580Y-100571904D02*
X143894342Y-100524285D01*
X143894342Y-100524285D02*
X143656247Y-100524285D01*
X143656247Y-100524285D02*
X143561009Y-100571904D01*
X143561009Y-100571904D02*
X143513390Y-100619523D01*
X143513390Y-100619523D02*
X143465771Y-100714761D01*
X143465771Y-100714761D02*
X143465771Y-100905237D01*
X143465771Y-100905237D02*
X143513390Y-101000475D01*
X143513390Y-101000475D02*
X143561009Y-101048094D01*
X143561009Y-101048094D02*
X143656247Y-101095713D01*
D13*
%TO.C,JP5*%
X130410000Y-113500000D02*
X133210000Y-113500000D01*
X130410000Y-115500000D02*
X130410000Y-113500000D01*
X133210000Y-113500000D02*
X133210000Y-115500000D01*
X133210000Y-115500000D02*
X130410000Y-115500000D01*
%TO.C,R7*%
X135130000Y-108040000D02*
X135460000Y-108040000D01*
X135130000Y-114580000D02*
X135130000Y-108040000D01*
X135460000Y-114580000D02*
X135130000Y-114580000D01*
X137540000Y-114580000D02*
X137870000Y-114580000D01*
X137870000Y-108040000D02*
X137540000Y-108040000D01*
X137870000Y-114580000D02*
X137870000Y-108040000D01*
%TO.C,D7*%
X133290000Y-118420000D02*
X133290000Y-118264000D01*
X133290000Y-120736000D02*
X133290000Y-120580000D01*
X130057665Y-118421392D02*
G75*
G02*
X133290000Y-118264484I1672335J-1078608D01*
G01*
X130688870Y-118420163D02*
G75*
G02*
X132770961Y-118420000I1041130J-1079837D01*
G01*
X132770961Y-120580000D02*
G75*
G02*
X130688870Y-120579837I-1040961J1080000D01*
G01*
X133290000Y-120735516D02*
G75*
G02*
X130057665Y-120578608I-1560000J1235516D01*
G01*
%TO.C,U4*%
X138670000Y-98660000D02*
X138670000Y-103960000D01*
X138670000Y-103960000D02*
X143870000Y-103960000D01*
X143870000Y-98660000D02*
X138670000Y-98660000D01*
X143870000Y-100310000D02*
X143870000Y-98660000D01*
X143870000Y-103960000D02*
X143870000Y-102310000D01*
X143870000Y-102310000D02*
G75*
G02*
X143870000Y-100310000I0J1000000D01*
G01*
%TO.C,JP1*%
X130410000Y-83500000D02*
X133210000Y-83500000D01*
X130410000Y-85500000D02*
X130410000Y-83500000D01*
X133210000Y-83500000D02*
X133210000Y-85500000D01*
X133210000Y-85500000D02*
X130410000Y-85500000D01*
%TO.C,C1*%
X129920000Y-58787677D02*
X140080000Y-58787677D01*
X129920000Y-58827677D02*
X140080000Y-58827677D01*
X129920000Y-58867677D02*
X140080000Y-58867677D01*
X129921000Y-58747677D02*
X140079000Y-58747677D01*
X129922000Y-58707677D02*
X140078000Y-58707677D01*
X129923000Y-58667677D02*
X140077000Y-58667677D01*
X129925000Y-58627677D02*
X140075000Y-58627677D01*
X129927000Y-58587677D02*
X140073000Y-58587677D01*
X129930000Y-58547677D02*
X140070000Y-58547677D01*
X129932000Y-58507677D02*
X140068000Y-58507677D01*
X129935000Y-58467677D02*
X140065000Y-58467677D01*
X129938000Y-58427677D02*
X140062000Y-58427677D01*
X129942000Y-58387677D02*
X140058000Y-58387677D01*
X129946000Y-58347677D02*
X140054000Y-58347677D01*
X129950000Y-58307677D02*
X140050000Y-58307677D01*
X129955000Y-58267677D02*
X140045000Y-58267677D01*
X129960000Y-58227677D02*
X140040000Y-58227677D01*
X129965000Y-58187677D02*
X140035000Y-58187677D01*
X129970000Y-58146677D02*
X140030000Y-58146677D01*
X129976000Y-58106677D02*
X140024000Y-58106677D01*
X129982000Y-58066677D02*
X140018000Y-58066677D01*
X129989000Y-58026677D02*
X140011000Y-58026677D01*
X129996000Y-57986677D02*
X140004000Y-57986677D01*
X130003000Y-57946677D02*
X139997000Y-57946677D01*
X130010000Y-57906677D02*
X139990000Y-57906677D01*
X130018000Y-57866677D02*
X139982000Y-57866677D01*
X130026000Y-57826677D02*
X139974000Y-57826677D01*
X130035000Y-57786677D02*
X139965000Y-57786677D01*
X130044000Y-57746677D02*
X139956000Y-57746677D01*
X130053000Y-57706677D02*
X139947000Y-57706677D01*
X130062000Y-57666677D02*
X139938000Y-57666677D01*
X130072000Y-57626677D02*
X139928000Y-57626677D01*
X130082000Y-57586677D02*
X133759000Y-57586677D01*
X130093000Y-57546677D02*
X133759000Y-57546677D01*
X130103000Y-57506677D02*
X133759000Y-57506677D01*
X130115000Y-57466677D02*
X133759000Y-57466677D01*
X130126000Y-57426677D02*
X133759000Y-57426677D01*
X130138000Y-57386677D02*
X133759000Y-57386677D01*
X130150000Y-57346677D02*
X133759000Y-57346677D01*
X130163000Y-57306677D02*
X133759000Y-57306677D01*
X130176000Y-57266677D02*
X133759000Y-57266677D01*
X130189000Y-57226677D02*
X133759000Y-57226677D01*
X130203000Y-57186677D02*
X133759000Y-57186677D01*
X130217000Y-57146677D02*
X133759000Y-57146677D01*
X130232000Y-57106677D02*
X133759000Y-57106677D01*
X130246000Y-57066677D02*
X133759000Y-57066677D01*
X130262000Y-57026677D02*
X133759000Y-57026677D01*
X130277000Y-56986677D02*
X133759000Y-56986677D01*
X130293000Y-56946677D02*
X133759000Y-56946677D01*
X130310000Y-56906677D02*
X133759000Y-56906677D01*
X130326000Y-56866677D02*
X133759000Y-56866677D01*
X130343000Y-56826677D02*
X133759000Y-56826677D01*
X130361000Y-56786677D02*
X133759000Y-56786677D01*
X130379000Y-56746677D02*
X133759000Y-56746677D01*
X130397000Y-56706677D02*
X133759000Y-56706677D01*
X130416000Y-56666677D02*
X133759000Y-56666677D01*
X130436000Y-56626677D02*
X133759000Y-56626677D01*
X130455000Y-56586677D02*
X133759000Y-56586677D01*
X130475000Y-56546677D02*
X133759000Y-56546677D01*
X130496000Y-56506677D02*
X133759000Y-56506677D01*
X130517000Y-56466677D02*
X133759000Y-56466677D01*
X130538000Y-56426677D02*
X133759000Y-56426677D01*
X130560000Y-56386677D02*
X133759000Y-56386677D01*
X130583000Y-56346677D02*
X133759000Y-56346677D01*
X130605000Y-56306677D02*
X133759000Y-56306677D01*
X130629000Y-56266677D02*
X133759000Y-56266677D01*
X130653000Y-56226677D02*
X133759000Y-56226677D01*
X130677000Y-56186677D02*
X133759000Y-56186677D01*
X130702000Y-56146677D02*
X133759000Y-56146677D01*
X130727000Y-56106677D02*
X133759000Y-56106677D01*
X130753000Y-56066677D02*
X133759000Y-56066677D01*
X130779000Y-56026677D02*
X133759000Y-56026677D01*
X130806000Y-55986677D02*
X133759000Y-55986677D01*
X130834000Y-55946677D02*
X133759000Y-55946677D01*
X130862000Y-55906677D02*
X133759000Y-55906677D01*
X130890000Y-55866677D02*
X133759000Y-55866677D01*
X130920000Y-55826677D02*
X133759000Y-55826677D01*
X130950000Y-55786677D02*
X133759000Y-55786677D01*
X130980000Y-55746677D02*
X133759000Y-55746677D01*
X131011000Y-55706677D02*
X133759000Y-55706677D01*
X131043000Y-55666677D02*
X133759000Y-55666677D01*
X131075000Y-55626677D02*
X133759000Y-55626677D01*
X131108000Y-55586677D02*
X133759000Y-55586677D01*
X131142000Y-55546677D02*
X133759000Y-55546677D01*
X131176000Y-55506677D02*
X133759000Y-55506677D01*
X131211000Y-55466677D02*
X133759000Y-55466677D01*
X131247000Y-55426677D02*
X133759000Y-55426677D01*
X131284000Y-55386677D02*
X133759000Y-55386677D01*
X131321000Y-55346677D02*
X133759000Y-55346677D01*
X131360000Y-55306677D02*
X133759000Y-55306677D01*
X131399000Y-55266677D02*
X133759000Y-55266677D01*
X131439000Y-55226677D02*
X133759000Y-55226677D01*
X131480000Y-55186677D02*
X133759000Y-55186677D01*
X131522000Y-55146677D02*
X133759000Y-55146677D01*
X131564000Y-55106677D02*
X138436000Y-55106677D01*
X131608000Y-55066677D02*
X138392000Y-55066677D01*
X131625000Y-63847323D02*
X132625000Y-63847323D01*
X131653000Y-55026677D02*
X138347000Y-55026677D01*
X131699000Y-54986677D02*
X138301000Y-54986677D01*
X131746000Y-54946677D02*
X138254000Y-54946677D01*
X131794000Y-54906677D02*
X138206000Y-54906677D01*
X131844000Y-54866677D02*
X138156000Y-54866677D01*
X131894000Y-54826677D02*
X138106000Y-54826677D01*
X131946000Y-54786677D02*
X138054000Y-54786677D01*
X132000000Y-54746677D02*
X138000000Y-54746677D01*
X132055000Y-54706677D02*
X137945000Y-54706677D01*
X132111000Y-54666677D02*
X137889000Y-54666677D01*
X132125000Y-64347323D02*
X132125000Y-63347323D01*
X132170000Y-54626677D02*
X137830000Y-54626677D01*
X132230000Y-54586677D02*
X137770000Y-54586677D01*
X132291000Y-54546677D02*
X137709000Y-54546677D01*
X132355000Y-54506677D02*
X137645000Y-54506677D01*
X132421000Y-54466677D02*
X137579000Y-54466677D01*
X132490000Y-54426677D02*
X137510000Y-54426677D01*
X132561000Y-54386677D02*
X137439000Y-54386677D01*
X132635000Y-54346677D02*
X137365000Y-54346677D01*
X132711000Y-54306677D02*
X137289000Y-54306677D01*
X132791000Y-54266677D02*
X137209000Y-54266677D01*
X132875000Y-54226677D02*
X137125000Y-54226677D01*
X132963000Y-54186677D02*
X137037000Y-54186677D01*
X133056000Y-54146677D02*
X136944000Y-54146677D01*
X133154000Y-54106677D02*
X136846000Y-54106677D01*
X133258000Y-54066677D02*
X136742000Y-54066677D01*
X133370000Y-54026677D02*
X136630000Y-54026677D01*
X133490000Y-53986677D02*
X136510000Y-53986677D01*
X133622000Y-53946677D02*
X136378000Y-53946677D01*
X133770000Y-53906677D02*
X136230000Y-53906677D01*
X133938000Y-53866677D02*
X136062000Y-53866677D01*
X134138000Y-53826677D02*
X135862000Y-53826677D01*
X134401000Y-53786677D02*
X135599000Y-53786677D01*
X136241000Y-55146677D02*
X138478000Y-55146677D01*
X136241000Y-55186677D02*
X138520000Y-55186677D01*
X136241000Y-55226677D02*
X138561000Y-55226677D01*
X136241000Y-55266677D02*
X138601000Y-55266677D01*
X136241000Y-55306677D02*
X138640000Y-55306677D01*
X136241000Y-55346677D02*
X138679000Y-55346677D01*
X136241000Y-55386677D02*
X138716000Y-55386677D01*
X136241000Y-55426677D02*
X138753000Y-55426677D01*
X136241000Y-55466677D02*
X138789000Y-55466677D01*
X136241000Y-55506677D02*
X138824000Y-55506677D01*
X136241000Y-55546677D02*
X138858000Y-55546677D01*
X136241000Y-55586677D02*
X138892000Y-55586677D01*
X136241000Y-55626677D02*
X138925000Y-55626677D01*
X136241000Y-55666677D02*
X138957000Y-55666677D01*
X136241000Y-55706677D02*
X138989000Y-55706677D01*
X136241000Y-55746677D02*
X139020000Y-55746677D01*
X136241000Y-55786677D02*
X139050000Y-55786677D01*
X136241000Y-55826677D02*
X139080000Y-55826677D01*
X136241000Y-55866677D02*
X139110000Y-55866677D01*
X136241000Y-55906677D02*
X139138000Y-55906677D01*
X136241000Y-55946677D02*
X139166000Y-55946677D01*
X136241000Y-55986677D02*
X139194000Y-55986677D01*
X136241000Y-56026677D02*
X139221000Y-56026677D01*
X136241000Y-56066677D02*
X139247000Y-56066677D01*
X136241000Y-56106677D02*
X139273000Y-56106677D01*
X136241000Y-56146677D02*
X139298000Y-56146677D01*
X136241000Y-56186677D02*
X139323000Y-56186677D01*
X136241000Y-56226677D02*
X139347000Y-56226677D01*
X136241000Y-56266677D02*
X139371000Y-56266677D01*
X136241000Y-56306677D02*
X139395000Y-56306677D01*
X136241000Y-56346677D02*
X139417000Y-56346677D01*
X136241000Y-56386677D02*
X139440000Y-56386677D01*
X136241000Y-56426677D02*
X139462000Y-56426677D01*
X136241000Y-56466677D02*
X139483000Y-56466677D01*
X136241000Y-56506677D02*
X139504000Y-56506677D01*
X136241000Y-56546677D02*
X139525000Y-56546677D01*
X136241000Y-56586677D02*
X139545000Y-56586677D01*
X136241000Y-56626677D02*
X139564000Y-56626677D01*
X136241000Y-56666677D02*
X139584000Y-56666677D01*
X136241000Y-56706677D02*
X139603000Y-56706677D01*
X136241000Y-56746677D02*
X139621000Y-56746677D01*
X136241000Y-56786677D02*
X139639000Y-56786677D01*
X136241000Y-56826677D02*
X139657000Y-56826677D01*
X136241000Y-56866677D02*
X139674000Y-56866677D01*
X136241000Y-56906677D02*
X139690000Y-56906677D01*
X136241000Y-56946677D02*
X139707000Y-56946677D01*
X136241000Y-56986677D02*
X139723000Y-56986677D01*
X136241000Y-57026677D02*
X139738000Y-57026677D01*
X136241000Y-57066677D02*
X139754000Y-57066677D01*
X136241000Y-57106677D02*
X139768000Y-57106677D01*
X136241000Y-57146677D02*
X139783000Y-57146677D01*
X136241000Y-57186677D02*
X139797000Y-57186677D01*
X136241000Y-57226677D02*
X139811000Y-57226677D01*
X136241000Y-57266677D02*
X139824000Y-57266677D01*
X136241000Y-57306677D02*
X139837000Y-57306677D01*
X136241000Y-57346677D02*
X139850000Y-57346677D01*
X136241000Y-57386677D02*
X139862000Y-57386677D01*
X136241000Y-57426677D02*
X139874000Y-57426677D01*
X136241000Y-57466677D02*
X139885000Y-57466677D01*
X136241000Y-57506677D02*
X139897000Y-57506677D01*
X136241000Y-57546677D02*
X139907000Y-57546677D01*
X136241000Y-57586677D02*
X139918000Y-57586677D01*
X140120000Y-58867677D02*
G75*
G02*
X129880000Y-58867677I-5120000J0D01*
G01*
X129880000Y-58867677D02*
G75*
G02*
X140120000Y-58867677I5120000J0D01*
G01*
%TO.C,R2*%
X144630000Y-77920000D02*
X144960000Y-77920000D01*
X144630000Y-84460000D02*
X144630000Y-77920000D01*
X144960000Y-84460000D02*
X144630000Y-84460000D01*
X147040000Y-84460000D02*
X147370000Y-84460000D01*
X147370000Y-77920000D02*
X147040000Y-77920000D01*
X147370000Y-84460000D02*
X147370000Y-77920000D01*
%TO.C,JP2*%
X130410000Y-93500000D02*
X133210000Y-93500000D01*
X130410000Y-95500000D02*
X130410000Y-93500000D01*
X133210000Y-93500000D02*
X133210000Y-95500000D01*
X133210000Y-95500000D02*
X130410000Y-95500000D01*
D14*
%TO.C,G\u002A\u002A\u002A*%
G36*
X166156916Y-88132107D02*
G01*
X166113166Y-88251010D01*
X166045738Y-88430365D01*
X165959128Y-88658453D01*
X165857828Y-88923555D01*
X165746330Y-89213950D01*
X165629128Y-89517920D01*
X165510714Y-89823746D01*
X165395582Y-90119706D01*
X165288224Y-90394082D01*
X165255716Y-90476753D01*
X165151230Y-90744112D01*
X165056882Y-90989327D01*
X164978203Y-91197725D01*
X164920719Y-91354630D01*
X164889960Y-91445367D01*
X164887590Y-91453932D01*
X164844822Y-91560141D01*
X164801485Y-91617787D01*
X164733119Y-91644474D01*
X164588911Y-91679936D01*
X164382359Y-91721870D01*
X164126962Y-91767973D01*
X163836219Y-91815944D01*
X163523628Y-91863480D01*
X163202687Y-91908278D01*
X162886897Y-91948037D01*
X162819055Y-91955924D01*
X162595672Y-91976608D01*
X162308386Y-91995884D01*
X161974750Y-92013244D01*
X161612318Y-92028183D01*
X161238642Y-92040195D01*
X160871276Y-92048773D01*
X160527771Y-92053411D01*
X160225679Y-92053602D01*
X159982555Y-92048840D01*
X159848221Y-92041614D01*
X159341179Y-91993243D01*
X158821523Y-91930246D01*
X158321009Y-91856959D01*
X157871391Y-91777716D01*
X157777639Y-91758923D01*
X157531000Y-91704335D01*
X157271623Y-91640420D01*
X157014212Y-91571559D01*
X156773473Y-91502133D01*
X156564110Y-91436522D01*
X156400830Y-91379107D01*
X156298338Y-91334268D01*
X156269967Y-91309821D01*
X156312013Y-91292916D01*
X156428668Y-91263067D01*
X156605964Y-91223407D01*
X156829932Y-91177074D01*
X157068943Y-91130536D01*
X157510678Y-91043491D01*
X157982814Y-90944414D01*
X158464978Y-90837997D01*
X158936793Y-90728932D01*
X159377886Y-90621914D01*
X159767879Y-90521636D01*
X160042651Y-90445588D01*
X161187896Y-90100600D01*
X162246132Y-89754267D01*
X163220372Y-89405459D01*
X164113632Y-89053049D01*
X164928925Y-88695908D01*
X165621094Y-88357876D01*
X165820516Y-88255769D01*
X165987817Y-88171679D01*
X166108615Y-88112712D01*
X166168532Y-88085973D01*
X166172498Y-88085376D01*
X166156916Y-88132107D01*
G37*
G36*
X158114264Y-79852715D02*
G01*
X158174661Y-79925970D01*
X158260545Y-80053274D01*
X158378223Y-80243178D01*
X158513845Y-80470145D01*
X158925462Y-81165563D01*
X158925462Y-82053981D01*
X158925462Y-82942399D01*
X159026740Y-82914084D01*
X159242088Y-82860901D01*
X159524725Y-82801383D01*
X159852495Y-82739379D01*
X160203239Y-82678736D01*
X160554800Y-82623304D01*
X160885022Y-82576929D01*
X161145299Y-82546154D01*
X161394689Y-82519703D01*
X161614430Y-82495324D01*
X161788085Y-82474925D01*
X161899218Y-82460415D01*
X161930055Y-82455068D01*
X161967864Y-82402528D01*
X161985803Y-82287703D01*
X161986321Y-82261052D01*
X162021171Y-82004280D01*
X162121596Y-81793177D01*
X162165777Y-81739064D01*
X162204490Y-81679287D01*
X162234382Y-81584663D01*
X162258532Y-81439338D01*
X162280015Y-81227459D01*
X162290267Y-81097681D01*
X162308118Y-80883878D01*
X162326769Y-80704110D01*
X162344063Y-80576681D01*
X162357844Y-80519900D01*
X162358385Y-80519262D01*
X162403145Y-80502547D01*
X162439363Y-80555157D01*
X162468492Y-80682675D01*
X162491983Y-80890685D01*
X162505793Y-81086249D01*
X162521443Y-81320438D01*
X162538050Y-81483171D01*
X162559537Y-81592969D01*
X162589828Y-81668352D01*
X162632843Y-81727842D01*
X162644389Y-81740620D01*
X162723901Y-81844455D01*
X162772024Y-81963592D01*
X162799548Y-82129313D01*
X162806905Y-82211697D01*
X162819055Y-82369241D01*
X164011891Y-82403080D01*
X164334800Y-82411731D01*
X164631374Y-82418709D01*
X164888710Y-82423788D01*
X165093902Y-82426741D01*
X165234047Y-82427343D01*
X165294752Y-82425586D01*
X165313217Y-82404685D01*
X165268515Y-82351267D01*
X165155855Y-82260963D01*
X164970445Y-82129405D01*
X164968410Y-82128005D01*
X164802233Y-82011960D01*
X164667572Y-81914495D01*
X164579368Y-81846656D01*
X164552043Y-81820213D01*
X164591562Y-81813415D01*
X164691109Y-81821577D01*
X164743347Y-81829051D01*
X164857689Y-81863638D01*
X165031281Y-81936939D01*
X165246495Y-82040822D01*
X165485702Y-82167157D01*
X165532075Y-82192841D01*
X165776877Y-82327229D01*
X165968031Y-82424683D01*
X166129110Y-82494553D01*
X166283682Y-82546186D01*
X166455317Y-82588934D01*
X166612379Y-82621371D01*
X166880106Y-82683756D01*
X167103213Y-82754817D01*
X167269537Y-82829416D01*
X167366909Y-82902413D01*
X167387532Y-82948779D01*
X167349576Y-82967246D01*
X167256319Y-82960424D01*
X167241549Y-82957532D01*
X167139865Y-82938934D01*
X166972698Y-82911256D01*
X166763660Y-82878309D01*
X166547229Y-82845513D01*
X165999201Y-82764127D01*
X165601963Y-82870366D01*
X165372960Y-82925659D01*
X165178290Y-82961318D01*
X165031060Y-82976021D01*
X164944376Y-82968445D01*
X164930834Y-82938074D01*
X164985279Y-82903778D01*
X165095746Y-82861336D01*
X165159714Y-82841874D01*
X165285197Y-82801178D01*
X165369215Y-82763558D01*
X165385852Y-82750109D01*
X165361095Y-82723397D01*
X165257825Y-82702350D01*
X165087373Y-82686889D01*
X164861068Y-82676935D01*
X164590239Y-82672409D01*
X164286217Y-82673234D01*
X163960331Y-82679330D01*
X163623911Y-82690619D01*
X163288286Y-82707021D01*
X162964785Y-82728460D01*
X162664740Y-82754855D01*
X162526473Y-82769955D01*
X162318376Y-82794962D01*
X162189974Y-82813207D01*
X162131536Y-82828280D01*
X162133329Y-82843774D01*
X162185620Y-82863278D01*
X162234583Y-82877651D01*
X162547951Y-83014356D01*
X162836228Y-83235535D01*
X163096635Y-83538444D01*
X163326393Y-83920339D01*
X163360219Y-83988786D01*
X163441628Y-84178134D01*
X163522888Y-84401169D01*
X163596404Y-84632815D01*
X163654575Y-84847995D01*
X163689804Y-85021627D01*
X163696802Y-85099707D01*
X163693965Y-85141803D01*
X163675425Y-85167074D01*
X163626141Y-85175959D01*
X163531069Y-85168900D01*
X163375169Y-85146337D01*
X163180747Y-85114832D01*
X162810627Y-85067458D01*
X162383468Y-85034475D01*
X161931256Y-85016892D01*
X161485977Y-85015716D01*
X161079618Y-85031955D01*
X160931058Y-85043941D01*
X160659289Y-85074496D01*
X160388006Y-85113003D01*
X160136281Y-85155997D01*
X159923187Y-85200017D01*
X159767797Y-85241598D01*
X159705152Y-85266535D01*
X159735477Y-85273352D01*
X159845854Y-85279652D01*
X160026311Y-85285232D01*
X160266876Y-85289885D01*
X160557577Y-85293406D01*
X160888441Y-85295589D01*
X161145557Y-85296216D01*
X161605018Y-85297667D01*
X161987411Y-85301579D01*
X162305674Y-85308459D01*
X162572742Y-85318812D01*
X162801552Y-85333142D01*
X163005040Y-85351955D01*
X163196144Y-85375758D01*
X163201663Y-85376532D01*
X163573533Y-85433205D01*
X163953731Y-85498948D01*
X164321882Y-85569685D01*
X164657612Y-85641335D01*
X164940548Y-85709823D01*
X165114701Y-85759439D01*
X165384777Y-85844837D01*
X164831358Y-85822057D01*
X164277939Y-85799277D01*
X164291206Y-86154840D01*
X164299101Y-86332197D01*
X164311200Y-86438807D01*
X164334654Y-86493904D01*
X164376613Y-86516716D01*
X164428727Y-86524693D01*
X164495042Y-86523143D01*
X164577928Y-86500600D01*
X164688071Y-86451470D01*
X164836153Y-86370160D01*
X165032860Y-86251076D01*
X165288876Y-86088625D01*
X165405538Y-86013322D01*
X165619291Y-85873994D01*
X165761376Y-85774750D01*
X165835494Y-85706435D01*
X165845340Y-85659893D01*
X165794613Y-85625967D01*
X165687011Y-85595501D01*
X165583693Y-85572189D01*
X165348148Y-85519883D01*
X165153585Y-85048047D01*
X164925114Y-84571729D01*
X164650707Y-84130810D01*
X164344529Y-83746602D01*
X164171997Y-83571174D01*
X163885828Y-83303477D01*
X164108396Y-83277118D01*
X164267217Y-83268081D01*
X164498448Y-83267999D01*
X164785025Y-83275862D01*
X165109886Y-83290663D01*
X165455969Y-83311392D01*
X165806210Y-83337042D01*
X166143547Y-83366605D01*
X166450917Y-83399072D01*
X166682910Y-83429224D01*
X166966209Y-83473901D01*
X167268378Y-83527036D01*
X167553551Y-83582024D01*
X167785859Y-83632255D01*
X167788883Y-83632967D01*
X167990125Y-83676375D01*
X168164990Y-83706537D01*
X168291253Y-83720050D01*
X168340128Y-83717392D01*
X168390406Y-83680567D01*
X168496611Y-83587505D01*
X168650939Y-83445559D01*
X168845585Y-83262075D01*
X169072747Y-83044406D01*
X169324622Y-82799901D01*
X169571477Y-82557562D01*
X169879298Y-82255985D01*
X170146818Y-81998395D01*
X170369940Y-81788551D01*
X170544568Y-81630209D01*
X170666605Y-81527128D01*
X170731956Y-81483064D01*
X170741966Y-81483923D01*
X170763660Y-81617325D01*
X170761061Y-81807935D01*
X170736638Y-82027004D01*
X170692858Y-82245784D01*
X170669271Y-82330740D01*
X170479935Y-82811658D01*
X170203920Y-83299829D01*
X169863161Y-83768791D01*
X169727988Y-83939271D01*
X169616045Y-84084283D01*
X169538084Y-84189618D01*
X169504856Y-84241066D01*
X169504384Y-84242976D01*
X169541693Y-84274440D01*
X169639160Y-84326578D01*
X169739752Y-84372405D01*
X170073773Y-84546995D01*
X170411199Y-84779726D01*
X170730326Y-85051741D01*
X171009448Y-85344180D01*
X171226863Y-85638185D01*
X171259627Y-85693054D01*
X171408162Y-86035440D01*
X171495214Y-86422628D01*
X171519496Y-86832483D01*
X171479724Y-87242869D01*
X171374613Y-87631651D01*
X171372468Y-87637375D01*
X171277856Y-87865164D01*
X171169867Y-88071334D01*
X171036286Y-88273325D01*
X170864896Y-88488580D01*
X170643482Y-88734537D01*
X170494744Y-88890471D01*
X170009618Y-89342097D01*
X169459604Y-89759718D01*
X168839083Y-90146814D01*
X168142433Y-90506864D01*
X167364038Y-90843347D01*
X167297815Y-90869450D01*
X167050001Y-90965954D01*
X166825591Y-91052369D01*
X166640380Y-91122687D01*
X166510166Y-91170903D01*
X166455512Y-91189734D01*
X166355917Y-91219225D01*
X166426677Y-90980950D01*
X166467846Y-90859102D01*
X166539301Y-90665977D01*
X166636312Y-90413233D01*
X166754149Y-90112527D01*
X166888078Y-89775518D01*
X167033370Y-89413863D01*
X167185293Y-89039219D01*
X167339115Y-88663246D01*
X167490106Y-88297600D01*
X167633533Y-87953940D01*
X167764667Y-87643923D01*
X167878776Y-87379208D01*
X167971127Y-87171453D01*
X167985269Y-87140582D01*
X168195836Y-86686507D01*
X168378016Y-86300242D01*
X168539154Y-85966967D01*
X168686596Y-85671864D01*
X168827686Y-85400110D01*
X168969770Y-85136885D01*
X169050830Y-84990685D01*
X169163721Y-84786849D01*
X169258929Y-84611310D01*
X169328619Y-84478798D01*
X169364956Y-84404043D01*
X169368397Y-84393627D01*
X169337483Y-84410465D01*
X169253286Y-84477723D01*
X169128624Y-84584702D01*
X168976313Y-84720708D01*
X168974537Y-84722321D01*
X168188519Y-85386120D01*
X167322534Y-86024075D01*
X166383999Y-86631995D01*
X165380332Y-87205683D01*
X164318949Y-87740947D01*
X163207267Y-88233590D01*
X162052704Y-88679418D01*
X161851284Y-88750746D01*
X161213723Y-88968215D01*
X160617835Y-89159225D01*
X160043527Y-89329026D01*
X159470707Y-89482868D01*
X158879281Y-89626000D01*
X158249159Y-89763671D01*
X157560247Y-89901130D01*
X157158627Y-89976765D01*
X156412305Y-90104870D01*
X155626386Y-90221286D01*
X154818427Y-90324313D01*
X154005985Y-90412253D01*
X153206618Y-90483405D01*
X152437883Y-90536070D01*
X151717338Y-90568549D01*
X151062541Y-90579142D01*
X150941974Y-90578495D01*
X150708359Y-90575863D01*
X150558053Y-90572498D01*
X150484339Y-90567379D01*
X150480505Y-90559479D01*
X150539832Y-90547778D01*
X150643132Y-90532951D01*
X151098827Y-90469736D01*
X151555470Y-90404651D01*
X152003968Y-90339128D01*
X152435229Y-90274597D01*
X152840161Y-90212491D01*
X153209672Y-90154241D01*
X153534671Y-90101277D01*
X153806064Y-90055033D01*
X154014760Y-90016938D01*
X154151667Y-89988425D01*
X154206252Y-89971979D01*
X154198793Y-89928246D01*
X154150262Y-89831188D01*
X154071016Y-89701370D01*
X154066617Y-89694668D01*
X153863967Y-89310928D01*
X153786397Y-89042865D01*
X157613171Y-89042865D01*
X157616140Y-89118839D01*
X157623235Y-89163123D01*
X157634435Y-89184037D01*
X157649719Y-89189900D01*
X157669064Y-89189030D01*
X157678676Y-89188658D01*
X157756091Y-89177051D01*
X157896039Y-89145924D01*
X158074591Y-89100825D01*
X158173937Y-89073916D01*
X158361901Y-89021690D01*
X158522042Y-88976971D01*
X158630962Y-88946303D01*
X158659562Y-88938091D01*
X158684634Y-88919709D01*
X158704332Y-88873611D01*
X158719868Y-88788525D01*
X158732458Y-88653175D01*
X158743312Y-88456291D01*
X158753646Y-88186599D01*
X158759286Y-88011593D01*
X158762259Y-87926638D01*
X159690676Y-87926638D01*
X159692791Y-88153814D01*
X159698588Y-88347897D01*
X159707249Y-88491517D01*
X159717955Y-88567307D01*
X159721180Y-88573980D01*
X159742619Y-88587581D01*
X159780594Y-88587882D01*
X159852266Y-88570804D01*
X159974795Y-88532267D01*
X160163309Y-88468883D01*
X160388373Y-88392456D01*
X160400829Y-87732759D01*
X160401176Y-87701640D01*
X161041055Y-87701640D01*
X161046230Y-87922660D01*
X161061995Y-88057086D01*
X161088713Y-88107765D01*
X161092700Y-88108354D01*
X161159929Y-88093782D01*
X161282508Y-88055911D01*
X161407789Y-88012297D01*
X161671233Y-87916241D01*
X161671233Y-87489772D01*
X161671233Y-87063303D01*
X161562878Y-87090499D01*
X161456426Y-87124592D01*
X161312831Y-87179271D01*
X161247789Y-87206310D01*
X161041055Y-87294927D01*
X161041055Y-87701640D01*
X160401176Y-87701640D01*
X160403420Y-87500716D01*
X160402198Y-87304404D01*
X160401893Y-87294927D01*
X160397531Y-87159552D01*
X160389787Y-87081895D01*
X160385407Y-87073063D01*
X160332590Y-87087145D01*
X160217620Y-87124478D01*
X160063001Y-87177689D01*
X160024102Y-87191431D01*
X159690676Y-87309800D01*
X159690676Y-87926638D01*
X158762259Y-87926638D01*
X158768957Y-87735261D01*
X158779647Y-87490538D01*
X158789560Y-87309800D01*
X158790573Y-87291337D01*
X158800954Y-87151574D01*
X158810007Y-87085162D01*
X158811561Y-87081934D01*
X158863812Y-87073129D01*
X158994619Y-87065072D01*
X159192544Y-87057822D01*
X159446143Y-87051440D01*
X159743976Y-87045984D01*
X160074603Y-87041515D01*
X160426580Y-87038092D01*
X160788468Y-87035776D01*
X161148824Y-87034626D01*
X161496210Y-87034701D01*
X161819183Y-87036063D01*
X162106301Y-87038770D01*
X162346124Y-87042882D01*
X162527211Y-87048459D01*
X162638121Y-87055561D01*
X162668228Y-87061775D01*
X162664777Y-87104702D01*
X162576164Y-87158343D01*
X162507788Y-87186528D01*
X162383956Y-87238975D01*
X162323182Y-87290187D01*
X162303153Y-87367492D01*
X162301410Y-87439280D01*
X162310349Y-87549765D01*
X162332591Y-87609671D01*
X162340420Y-87613215D01*
X162400798Y-87597088D01*
X162514864Y-87555571D01*
X162610496Y-87517188D01*
X162742685Y-87458354D01*
X162811504Y-87407516D01*
X162837583Y-87340290D01*
X162841562Y-87244065D01*
X162841562Y-87066968D01*
X163167923Y-87079122D01*
X163349493Y-87081279D01*
X163485979Y-87065547D01*
X163617308Y-87022920D01*
X163783408Y-86944389D01*
X163798100Y-86936943D01*
X163943272Y-86859715D01*
X164050686Y-86795933D01*
X164100572Y-86757494D01*
X164101917Y-86754131D01*
X164058855Y-86734593D01*
X163929283Y-86716140D01*
X163712621Y-86698740D01*
X163408289Y-86682362D01*
X163015706Y-86666976D01*
X162534292Y-86652550D01*
X161963468Y-86639054D01*
X161931794Y-86638386D01*
X161414431Y-86629753D01*
X160973426Y-86628145D01*
X160595298Y-86634800D01*
X160266566Y-86650956D01*
X159973748Y-86677852D01*
X159703364Y-86716728D01*
X159441932Y-86768822D01*
X159175971Y-86835372D01*
X158892001Y-86917617D01*
X158891702Y-86917708D01*
X158790423Y-86948525D01*
X158790423Y-86492603D01*
X163426727Y-86492603D01*
X163663043Y-86478997D01*
X163899359Y-86465392D01*
X163883985Y-86262835D01*
X163855723Y-86086058D01*
X163799286Y-85985156D01*
X163707416Y-85948445D01*
X163688331Y-85947746D01*
X163546932Y-85971300D01*
X163463755Y-86049805D01*
X163429151Y-86195029D01*
X163426727Y-86266771D01*
X163426727Y-86492603D01*
X158790423Y-86492603D01*
X158790423Y-86155714D01*
X162281819Y-86155714D01*
X162288762Y-86215198D01*
X162308681Y-86314906D01*
X162348480Y-86376796D01*
X162427342Y-86411297D01*
X162564457Y-86428834D01*
X162695271Y-86436141D01*
X162786950Y-86435199D01*
X162829004Y-86404860D01*
X162840591Y-86320855D01*
X162840869Y-86266771D01*
X162840947Y-86251582D01*
X162830024Y-86053872D01*
X162793555Y-85924949D01*
X162723687Y-85845327D01*
X162664613Y-85813994D01*
X162533690Y-85785823D01*
X162425144Y-85815796D01*
X162328199Y-85884947D01*
X162282661Y-85991699D01*
X162281819Y-86155714D01*
X158790423Y-86155714D01*
X158790423Y-84129762D01*
X158790423Y-83895920D01*
X158929651Y-83895920D01*
X158940167Y-83997693D01*
X158981055Y-84046448D01*
X159067079Y-84049722D01*
X159213006Y-84015045D01*
X159386300Y-83964000D01*
X159540771Y-83920729D01*
X159657685Y-83893117D01*
X159714213Y-83886475D01*
X159715837Y-83887321D01*
X159713953Y-83936028D01*
X159691867Y-84044638D01*
X159665164Y-84149334D01*
X159630755Y-84312550D01*
X159599655Y-84525705D01*
X159577474Y-84748745D01*
X159574064Y-84799924D01*
X159550172Y-85205039D01*
X159666329Y-84875441D01*
X159739818Y-84679703D01*
X159820255Y-84484972D01*
X159889318Y-84335289D01*
X160159835Y-83895422D01*
X160490678Y-83521075D01*
X160878767Y-83215075D01*
X161321022Y-82980255D01*
X161398696Y-82948661D01*
X161558701Y-82886197D01*
X161333638Y-82912934D01*
X161195284Y-82933661D01*
X160988110Y-82970098D01*
X160731172Y-83018412D01*
X160443529Y-83074768D01*
X160144239Y-83135334D01*
X159852357Y-83196276D01*
X159586945Y-83253760D01*
X159367057Y-83303953D01*
X159263056Y-83329446D01*
X158947968Y-83409981D01*
X158934743Y-83733598D01*
X158929651Y-83895920D01*
X158790423Y-83895920D01*
X158790423Y-81310998D01*
X158470561Y-80737309D01*
X158354505Y-80530873D01*
X158252101Y-80351926D01*
X158172129Y-80215567D01*
X158123364Y-80136896D01*
X158114567Y-80124966D01*
X158103729Y-80119208D01*
X158093474Y-80129672D01*
X158083432Y-80161850D01*
X158073233Y-80221237D01*
X158062509Y-80313324D01*
X158050889Y-80443604D01*
X158038006Y-80617570D01*
X158023489Y-80840716D01*
X158006969Y-81118533D01*
X157988077Y-81456516D01*
X157966443Y-81860155D01*
X157941698Y-82334946D01*
X157913472Y-82886380D01*
X157881397Y-83519950D01*
X157866800Y-83809646D01*
X157839640Y-84349209D01*
X157813227Y-84873934D01*
X157788001Y-85375048D01*
X157764406Y-85843775D01*
X157742882Y-86271339D01*
X157723872Y-86648970D01*
X157707818Y-86967890D01*
X157695160Y-87219325D01*
X157686340Y-87394501D01*
X157683260Y-87455671D01*
X157661004Y-87896483D01*
X157643008Y-88255692D01*
X157629248Y-88541616D01*
X157619703Y-88762573D01*
X157614352Y-88926883D01*
X157613171Y-89042865D01*
X153786397Y-89042865D01*
X153748104Y-88910533D01*
X153718166Y-88497376D01*
X153773294Y-88075351D01*
X153912624Y-87648351D01*
X154135295Y-87220271D01*
X154440447Y-86795004D01*
X154793487Y-86409395D01*
X155068522Y-86147572D01*
X155326167Y-85924996D01*
X155591369Y-85722614D01*
X155889076Y-85521380D01*
X156240673Y-85304374D01*
X156435820Y-85184970D01*
X156601081Y-85078734D01*
X156721886Y-84995420D01*
X156783667Y-84944784D01*
X156788464Y-84937602D01*
X156798642Y-84872324D01*
X156812682Y-84742947D01*
X156827851Y-84575157D01*
X156830597Y-84541516D01*
X156858558Y-84193083D01*
X156732934Y-84239781D01*
X156511013Y-84335254D01*
X156233704Y-84475178D01*
X155917772Y-84650167D01*
X155579985Y-84850837D01*
X155237108Y-85067802D01*
X155144398Y-85128915D01*
X154828250Y-85346106D01*
X154565950Y-85543807D01*
X154331160Y-85743439D01*
X154097534Y-85966422D01*
X154027953Y-86036763D01*
X153843695Y-86231214D01*
X153665998Y-86429858D01*
X153512868Y-86611842D01*
X153402308Y-86756311D01*
X153385821Y-86780481D01*
X153199052Y-87110296D01*
X153048585Y-87469844D01*
X152945897Y-87827726D01*
X152905696Y-88093882D01*
X152904180Y-88457175D01*
X152948482Y-88833031D01*
X153032824Y-89195703D01*
X153151428Y-89519448D01*
X153276987Y-89747938D01*
X153342669Y-89856590D01*
X153348419Y-89899809D01*
X153295500Y-89878188D01*
X153185177Y-89792322D01*
X153018714Y-89642803D01*
X152984193Y-89610409D01*
X152701382Y-89304093D01*
X152501079Y-88991324D01*
X152376136Y-88657508D01*
X152319403Y-88288055D01*
X152317221Y-88248914D01*
X152339650Y-87783285D01*
X152450030Y-87317880D01*
X152646310Y-86855058D01*
X152926442Y-86397176D01*
X153288376Y-85946594D01*
X153730064Y-85505670D01*
X154249454Y-85076761D01*
X154844499Y-84662226D01*
X155513148Y-84264423D01*
X156003055Y-84007556D01*
X156226429Y-83898077D01*
X156430127Y-83801800D01*
X156596532Y-83726792D01*
X156708028Y-83681118D01*
X156734936Y-83672446D01*
X156867771Y-83608731D01*
X156924927Y-83500824D01*
X156925844Y-83494557D01*
X156931485Y-83439117D01*
X156944245Y-83306539D01*
X156962943Y-83109323D01*
X156986399Y-82859974D01*
X157013432Y-82570993D01*
X157038244Y-82304568D01*
X157144666Y-81159592D01*
X157565910Y-80526568D01*
X157709436Y-80312436D01*
X157839015Y-80122002D01*
X157945077Y-79969109D01*
X158018048Y-79867600D01*
X158044692Y-79834136D01*
X158073044Y-79824954D01*
X158114264Y-79852715D01*
G37*
D13*
%TO.C,U8*%
X138630000Y-129540000D02*
X138630000Y-134840000D01*
X138630000Y-134840000D02*
X143830000Y-134840000D01*
X143830000Y-129540000D02*
X138630000Y-129540000D01*
X143830000Y-131190000D02*
X143830000Y-129540000D01*
X143830000Y-134840000D02*
X143830000Y-133190000D01*
X143830000Y-133190000D02*
G75*
G02*
X143830000Y-131190000I0J1000000D01*
G01*
%TO.C,R12*%
X135130000Y-118230000D02*
X135460000Y-118230000D01*
X135130000Y-124770000D02*
X135130000Y-118230000D01*
X135460000Y-124770000D02*
X135130000Y-124770000D01*
X137540000Y-124770000D02*
X137870000Y-124770000D01*
X137870000Y-118230000D02*
X137540000Y-118230000D01*
X137870000Y-124770000D02*
X137870000Y-118230000D01*
%TO.C,L1*%
X163630000Y-56730000D02*
X163630000Y-63270000D01*
X163630000Y-63270000D02*
X166370000Y-63270000D01*
X165000000Y-55960000D02*
X165000000Y-56730000D01*
X165000000Y-64040000D02*
X165000000Y-63270000D01*
X166370000Y-56730000D02*
X163630000Y-56730000D01*
X166370000Y-63270000D02*
X166370000Y-56730000D01*
%TO.C,R15*%
X144630000Y-128920000D02*
X144960000Y-128920000D01*
X144630000Y-135460000D02*
X144630000Y-128920000D01*
X144960000Y-135460000D02*
X144630000Y-135460000D01*
X147040000Y-135460000D02*
X147370000Y-135460000D01*
X147370000Y-128920000D02*
X147040000Y-128920000D01*
X147370000Y-135460000D02*
X147370000Y-128920000D01*
%TO.C,R11*%
X169230000Y-77130000D02*
X169230000Y-77460000D01*
X169230000Y-79870000D02*
X169230000Y-79540000D01*
X175770000Y-77130000D02*
X169230000Y-77130000D01*
X175770000Y-77460000D02*
X175770000Y-77130000D01*
X175770000Y-79540000D02*
X175770000Y-79870000D01*
X175770000Y-79870000D02*
X169230000Y-79870000D01*
%TO.C,J8*%
X118690000Y-60420000D02*
X118690000Y-70580000D01*
X118690000Y-70580000D02*
X126310000Y-70580000D01*
X119960000Y-70580000D02*
X119960000Y-60420000D01*
X126310000Y-60420000D02*
X118690000Y-60420000D01*
X126310000Y-70580000D02*
X126310000Y-60420000D01*
%TO.C,D2*%
X133290000Y-88420000D02*
X133290000Y-88264000D01*
X133290000Y-90736000D02*
X133290000Y-90580000D01*
X130057665Y-88421392D02*
G75*
G02*
X133290000Y-88264484I1672335J-1078608D01*
G01*
X130688870Y-88420163D02*
G75*
G02*
X132770961Y-88420000I1041130J-1079837D01*
G01*
X132770961Y-90580000D02*
G75*
G02*
X130688870Y-90579837I-1040961J1080000D01*
G01*
X133290000Y-90735516D02*
G75*
G02*
X130057665Y-90578608I-1560000J1235516D01*
G01*
%TO.C,C2*%
X156110000Y-62797262D02*
X156660000Y-62797262D01*
X156385000Y-63072262D02*
X156385000Y-62522262D01*
X156940000Y-62667077D02*
G75*
G02*
X156940000Y-57332923I1060000J2667077D01*
G01*
X159060000Y-57332923D02*
G75*
G02*
X159060000Y-62667077I-1060000J-2667077D01*
G01*
%TO.C,U6*%
X138670000Y-119160000D02*
X138670000Y-124460000D01*
X138670000Y-124460000D02*
X143870000Y-124460000D01*
X143870000Y-119160000D02*
X138670000Y-119160000D01*
X143870000Y-120810000D02*
X143870000Y-119160000D01*
X143870000Y-124460000D02*
X143870000Y-122810000D01*
X143870000Y-122810000D02*
G75*
G02*
X143870000Y-120810000I0J1000000D01*
G01*
%TO.C,J7*%
X118100000Y-76700000D02*
X118100000Y-77200000D01*
X118340000Y-76940000D02*
X118340000Y-137060000D01*
X118840000Y-76700000D02*
X118100000Y-76700000D01*
X118900000Y-76940000D02*
X118900000Y-137060000D01*
X120400000Y-76940000D02*
X120400000Y-137060000D01*
X121761000Y-83466000D02*
X121726000Y-83431000D01*
X121761000Y-88466000D02*
X121726000Y-88431000D01*
X121761000Y-93466000D02*
X121726000Y-93431000D01*
X121761000Y-98466000D02*
X121726000Y-98431000D01*
X121761000Y-103466000D02*
X121726000Y-103431000D01*
X121761000Y-108466000D02*
X121726000Y-108431000D01*
X121761000Y-113466000D02*
X121726000Y-113431000D01*
X121761000Y-118466000D02*
X121726000Y-118431000D01*
X121761000Y-123466000D02*
X121726000Y-123431000D01*
X121761000Y-128466000D02*
X121726000Y-128431000D01*
X121761000Y-133466000D02*
X121726000Y-133431000D01*
X121977000Y-83273000D02*
X121931000Y-83226000D01*
X121977000Y-88273000D02*
X121931000Y-88226000D01*
X121977000Y-93273000D02*
X121931000Y-93226000D01*
X121977000Y-98273000D02*
X121931000Y-98226000D01*
X121977000Y-103273000D02*
X121931000Y-103226000D01*
X121977000Y-108273000D02*
X121931000Y-108226000D01*
X121977000Y-113273000D02*
X121931000Y-113226000D01*
X121977000Y-118273000D02*
X121931000Y-118226000D01*
X121977000Y-123273000D02*
X121931000Y-123226000D01*
X121977000Y-128273000D02*
X121931000Y-128226000D01*
X121977000Y-133273000D02*
X121931000Y-133226000D01*
X124069000Y-85775000D02*
X124023000Y-85728000D01*
X124069000Y-90775000D02*
X124023000Y-90728000D01*
X124069000Y-95775000D02*
X124023000Y-95728000D01*
X124069000Y-100775000D02*
X124023000Y-100728000D01*
X124069000Y-105775000D02*
X124023000Y-105728000D01*
X124069000Y-110775000D02*
X124023000Y-110728000D01*
X124069000Y-115775000D02*
X124023000Y-115728000D01*
X124069000Y-120775000D02*
X124023000Y-120728000D01*
X124069000Y-125775000D02*
X124023000Y-125728000D01*
X124069000Y-130775000D02*
X124023000Y-130728000D01*
X124069000Y-135775000D02*
X124023000Y-135728000D01*
X124275000Y-85570000D02*
X124239000Y-85535000D01*
X124275000Y-90570000D02*
X124239000Y-90535000D01*
X124275000Y-95570000D02*
X124239000Y-95535000D01*
X124275000Y-100570000D02*
X124239000Y-100535000D01*
X124275000Y-105570000D02*
X124239000Y-105535000D01*
X124275000Y-110570000D02*
X124239000Y-110535000D01*
X124275000Y-115570000D02*
X124239000Y-115535000D01*
X124275000Y-120570000D02*
X124239000Y-120535000D01*
X124275000Y-125570000D02*
X124239000Y-125535000D01*
X124275000Y-130570000D02*
X124239000Y-130535000D01*
X124275000Y-135570000D02*
X124239000Y-135535000D01*
X125301000Y-76940000D02*
X125301000Y-137060000D01*
X128261000Y-76940000D02*
X118340000Y-76940000D01*
X128261000Y-76940000D02*
X128261000Y-137060000D01*
X128261000Y-137060000D02*
X118340000Y-137060000D01*
X121319747Y-79528805D02*
G75*
G02*
X121465000Y-78816000I1680254J28806D01*
G01*
X121465244Y-80183318D02*
G75*
G02*
X121320000Y-79500000I1534756J683318D01*
G01*
X122316958Y-77964573D02*
G75*
G02*
X123684000Y-77965000I683041J-1535420D01*
G01*
X123683042Y-81035427D02*
G75*
G02*
X122316000Y-81035000I-683042J1535427D01*
G01*
X124535427Y-78816958D02*
G75*
G02*
X124535000Y-80184000I-1535420J-683041D01*
G01*
X124680000Y-84500000D02*
G75*
G02*
X121320000Y-84500000I-1680000J0D01*
G01*
X121320000Y-84500000D02*
G75*
G02*
X124680000Y-84500000I1680000J0D01*
G01*
X124680000Y-89500000D02*
G75*
G02*
X121320000Y-89500000I-1680000J0D01*
G01*
X121320000Y-89500000D02*
G75*
G02*
X124680000Y-89500000I1680000J0D01*
G01*
X124680000Y-94500000D02*
G75*
G02*
X121320000Y-94500000I-1680000J0D01*
G01*
X121320000Y-94500000D02*
G75*
G02*
X124680000Y-94500000I1680000J0D01*
G01*
X124680000Y-99500000D02*
G75*
G02*
X121320000Y-99500000I-1680000J0D01*
G01*
X121320000Y-99500000D02*
G75*
G02*
X124680000Y-99500000I1680000J0D01*
G01*
X124680000Y-104500000D02*
G75*
G02*
X121320000Y-104500000I-1680000J0D01*
G01*
X121320000Y-104500000D02*
G75*
G02*
X124680000Y-104500000I1680000J0D01*
G01*
X124680000Y-109500000D02*
G75*
G02*
X121320000Y-109500000I-1680000J0D01*
G01*
X121320000Y-109500000D02*
G75*
G02*
X124680000Y-109500000I1680000J0D01*
G01*
X124680000Y-114500000D02*
G75*
G02*
X121320000Y-114500000I-1680000J0D01*
G01*
X121320000Y-114500000D02*
G75*
G02*
X124680000Y-114500000I1680000J0D01*
G01*
X124680000Y-119500000D02*
G75*
G02*
X121320000Y-119500000I-1680000J0D01*
G01*
X121320000Y-119500000D02*
G75*
G02*
X124680000Y-119500000I1680000J0D01*
G01*
X124680000Y-124500000D02*
G75*
G02*
X121320000Y-124500000I-1680000J0D01*
G01*
X121320000Y-124500000D02*
G75*
G02*
X124680000Y-124500000I1680000J0D01*
G01*
X124680000Y-129500000D02*
G75*
G02*
X121320000Y-129500000I-1680000J0D01*
G01*
X121320000Y-129500000D02*
G75*
G02*
X124680000Y-129500000I1680000J0D01*
G01*
X124680000Y-134500000D02*
G75*
G02*
X121320000Y-134500000I-1680000J0D01*
G01*
X121320000Y-134500000D02*
G75*
G02*
X124680000Y-134500000I1680000J0D01*
G01*
%TO.C,D3*%
X133290000Y-98420000D02*
X133290000Y-98264000D01*
X133290000Y-100736000D02*
X133290000Y-100580000D01*
X130057665Y-98421392D02*
G75*
G02*
X133290000Y-98264484I1672335J-1078608D01*
G01*
X130688870Y-98420163D02*
G75*
G02*
X132770961Y-98420000I1041130J-1079837D01*
G01*
X132770961Y-100580000D02*
G75*
G02*
X130688870Y-100579837I-1040961J1080000D01*
G01*
X133290000Y-100735516D02*
G75*
G02*
X130057665Y-100578608I-1560000J1235516D01*
G01*
%TO.C,R4*%
X144630000Y-88040000D02*
X144960000Y-88040000D01*
X144630000Y-94580000D02*
X144630000Y-88040000D01*
X144960000Y-94580000D02*
X144630000Y-94580000D01*
X147040000Y-94580000D02*
X147370000Y-94580000D01*
X147370000Y-88040000D02*
X147040000Y-88040000D01*
X147370000Y-94580000D02*
X147370000Y-88040000D01*
%TO.C,D1*%
X133250000Y-78420000D02*
X133250000Y-78264000D01*
X133250000Y-80736000D02*
X133250000Y-80580000D01*
X130017665Y-78421392D02*
G75*
G02*
X133250000Y-78264484I1672335J-1078608D01*
G01*
X130648870Y-78420163D02*
G75*
G02*
X132730961Y-78420000I1041130J-1079837D01*
G01*
X132730961Y-80580000D02*
G75*
G02*
X130648870Y-80579837I-1040961J1080000D01*
G01*
X133250000Y-80735516D02*
G75*
G02*
X130017665Y-80578608I-1560000J1235516D01*
G01*
%TO.C,U3*%
X138670000Y-88660000D02*
X138670000Y-93960000D01*
X138670000Y-93960000D02*
X143870000Y-93960000D01*
X143870000Y-88660000D02*
X138670000Y-88660000D01*
X143870000Y-90310000D02*
X143870000Y-88660000D01*
X143870000Y-93960000D02*
X143870000Y-92310000D01*
X143870000Y-92310000D02*
G75*
G02*
X143870000Y-90310000I0J1000000D01*
G01*
%TO.C,R10*%
X169230000Y-72130000D02*
X175770000Y-72130000D01*
X169230000Y-72460000D02*
X169230000Y-72130000D01*
X169230000Y-74540000D02*
X169230000Y-74870000D01*
X169230000Y-74870000D02*
X175770000Y-74870000D01*
X175770000Y-72130000D02*
X175770000Y-72460000D01*
X175770000Y-74870000D02*
X175770000Y-74540000D01*
%TO.C,D5*%
X133200000Y-67230000D02*
X133200000Y-69000000D01*
X133200000Y-71000000D02*
X133200000Y-72770000D01*
X133200000Y-72770000D02*
X141800000Y-72770000D01*
X141800000Y-67230000D02*
X133200000Y-67230000D01*
X141800000Y-72770000D02*
X141800000Y-67230000D01*
X133200000Y-69000000D02*
G75*
G02*
X133200000Y-71000000I0J-1000000D01*
G01*
%TO.C,R5*%
X135130000Y-98040000D02*
X135460000Y-98040000D01*
X135130000Y-104580000D02*
X135130000Y-98040000D01*
X135460000Y-104580000D02*
X135130000Y-104580000D01*
X137540000Y-104580000D02*
X137870000Y-104580000D01*
X137870000Y-98040000D02*
X137540000Y-98040000D01*
X137870000Y-104580000D02*
X137870000Y-98040000D01*
%TO.C,F1*%
X122460000Y-73500000D02*
X123230000Y-73500000D01*
X123230000Y-72130000D02*
X123230000Y-74870000D01*
X123230000Y-74870000D02*
X129770000Y-74870000D01*
X129770000Y-72130000D02*
X123230000Y-72130000D01*
X129770000Y-74870000D02*
X129770000Y-72130000D01*
X130540000Y-73500000D02*
X129770000Y-73500000D01*
%TO.C,D4*%
X133290000Y-108420000D02*
X133290000Y-108264000D01*
X133290000Y-110736000D02*
X133290000Y-110580000D01*
X130057665Y-108421392D02*
G75*
G02*
X133290000Y-108264484I1672335J-1078608D01*
G01*
X130688870Y-108420163D02*
G75*
G02*
X132770961Y-108420000I1041130J-1079837D01*
G01*
X132770961Y-110580000D02*
G75*
G02*
X130688870Y-110579837I-1040961J1080000D01*
G01*
X133290000Y-110735516D02*
G75*
G02*
X130057665Y-110578608I-1560000J1235516D01*
G01*
%TO.C,R8*%
X144630000Y-108040000D02*
X144960000Y-108040000D01*
X144630000Y-114580000D02*
X144630000Y-108040000D01*
X144960000Y-114580000D02*
X144630000Y-114580000D01*
X147040000Y-114580000D02*
X147370000Y-114580000D01*
X147370000Y-108040000D02*
X147040000Y-108040000D01*
X147370000Y-114580000D02*
X147370000Y-108040000D01*
%TO.C,U7*%
X169860000Y-59870000D02*
X169860000Y-70150000D01*
X169860000Y-70150000D02*
X175160000Y-70150000D01*
X171510000Y-59870000D02*
X169860000Y-59870000D01*
X175160000Y-59870000D02*
X173510000Y-59870000D01*
X175160000Y-70150000D02*
X175160000Y-59870000D01*
X173510000Y-59870000D02*
G75*
G02*
X171510000Y-59870000I-1000000J0D01*
G01*
%TO.C,R13*%
X135130000Y-128920000D02*
X135460000Y-128920000D01*
X135130000Y-135460000D02*
X135130000Y-128920000D01*
X135460000Y-135460000D02*
X135130000Y-135460000D01*
X137540000Y-135460000D02*
X137870000Y-135460000D01*
X137870000Y-128920000D02*
X137540000Y-128920000D01*
X137870000Y-135460000D02*
X137870000Y-128920000D01*
%TO.C,C3*%
X150319000Y-74533000D02*
X150319000Y-73467000D01*
X150359000Y-74768000D02*
X150359000Y-73232000D01*
X150399000Y-74948000D02*
X150399000Y-73052000D01*
X150439000Y-75098000D02*
X150439000Y-72902000D01*
X150479000Y-75229000D02*
X150479000Y-72771000D01*
X150519000Y-75346000D02*
X150519000Y-72654000D01*
X150559000Y-75453000D02*
X150559000Y-72547000D01*
X150599000Y-75552000D02*
X150599000Y-72448000D01*
X150639000Y-75645000D02*
X150639000Y-72355000D01*
X150679000Y-75731000D02*
X150679000Y-72269000D01*
X150719000Y-75813000D02*
X150719000Y-72187000D01*
X150759000Y-75890000D02*
X150759000Y-72110000D01*
X150799000Y-75964000D02*
X150799000Y-72036000D01*
X150839000Y-76034000D02*
X150839000Y-71966000D01*
X150879000Y-76102000D02*
X150879000Y-71898000D01*
X150919000Y-76166000D02*
X150919000Y-71834000D01*
X150959000Y-76228000D02*
X150959000Y-71772000D01*
X150999000Y-76287000D02*
X150999000Y-71713000D01*
X151039000Y-76345000D02*
X151039000Y-71655000D01*
X151079000Y-76400000D02*
X151079000Y-71600000D01*
X151119000Y-76454000D02*
X151119000Y-71546000D01*
X151159000Y-76505000D02*
X151159000Y-71495000D01*
X151199000Y-76556000D02*
X151199000Y-71444000D01*
X151239000Y-76604000D02*
X151239000Y-71396000D01*
X151279000Y-76651000D02*
X151279000Y-71349000D01*
X151319000Y-76697000D02*
X151319000Y-71303000D01*
X151359000Y-76741000D02*
X151359000Y-71259000D01*
X151399000Y-76784000D02*
X151399000Y-71216000D01*
X151439000Y-76826000D02*
X151439000Y-71174000D01*
X151479000Y-72960000D02*
X151479000Y-71133000D01*
X151479000Y-76867000D02*
X151479000Y-75040000D01*
X151519000Y-72960000D02*
X151519000Y-71093000D01*
X151519000Y-76907000D02*
X151519000Y-75040000D01*
X151559000Y-72960000D02*
X151559000Y-71055000D01*
X151559000Y-76945000D02*
X151559000Y-75040000D01*
X151599000Y-72960000D02*
X151599000Y-71017000D01*
X151599000Y-76983000D02*
X151599000Y-75040000D01*
X151639000Y-72960000D02*
X151639000Y-70981000D01*
X151639000Y-77019000D02*
X151639000Y-75040000D01*
X151679000Y-72960000D02*
X151679000Y-70945000D01*
X151679000Y-77055000D02*
X151679000Y-75040000D01*
X151719000Y-72960000D02*
X151719000Y-70910000D01*
X151719000Y-77090000D02*
X151719000Y-75040000D01*
X151759000Y-72960000D02*
X151759000Y-70876000D01*
X151759000Y-77124000D02*
X151759000Y-75040000D01*
X151799000Y-72960000D02*
X151799000Y-70844000D01*
X151799000Y-77156000D02*
X151799000Y-75040000D01*
X151839000Y-72960000D02*
X151839000Y-70811000D01*
X151839000Y-77189000D02*
X151839000Y-75040000D01*
X151879000Y-72960000D02*
X151879000Y-70780000D01*
X151879000Y-77220000D02*
X151879000Y-75040000D01*
X151919000Y-72960000D02*
X151919000Y-70750000D01*
X151919000Y-77250000D02*
X151919000Y-75040000D01*
X151959000Y-72960000D02*
X151959000Y-70720000D01*
X151959000Y-77280000D02*
X151959000Y-75040000D01*
X151999000Y-72960000D02*
X151999000Y-70691000D01*
X151999000Y-77309000D02*
X151999000Y-75040000D01*
X152039000Y-72960000D02*
X152039000Y-70662000D01*
X152039000Y-77338000D02*
X152039000Y-75040000D01*
X152079000Y-72960000D02*
X152079000Y-70635000D01*
X152079000Y-77365000D02*
X152079000Y-75040000D01*
X152119000Y-72960000D02*
X152119000Y-70608000D01*
X152119000Y-77392000D02*
X152119000Y-75040000D01*
X152159000Y-72960000D02*
X152159000Y-70582000D01*
X152159000Y-77418000D02*
X152159000Y-75040000D01*
X152199000Y-72960000D02*
X152199000Y-70556000D01*
X152199000Y-77444000D02*
X152199000Y-75040000D01*
X152239000Y-72960000D02*
X152239000Y-70531000D01*
X152239000Y-77469000D02*
X152239000Y-75040000D01*
X152279000Y-72960000D02*
X152279000Y-70507000D01*
X152279000Y-77493000D02*
X152279000Y-75040000D01*
X152319000Y-72960000D02*
X152319000Y-70483000D01*
X152319000Y-77517000D02*
X152319000Y-75040000D01*
X152359000Y-72960000D02*
X152359000Y-70460000D01*
X152359000Y-77540000D02*
X152359000Y-75040000D01*
X152399000Y-72960000D02*
X152399000Y-70438000D01*
X152399000Y-77562000D02*
X152399000Y-75040000D01*
X152439000Y-72960000D02*
X152439000Y-70416000D01*
X152439000Y-77584000D02*
X152439000Y-75040000D01*
X152479000Y-72960000D02*
X152479000Y-70394000D01*
X152479000Y-77606000D02*
X152479000Y-75040000D01*
X152519000Y-72960000D02*
X152519000Y-70373000D01*
X152519000Y-77627000D02*
X152519000Y-75040000D01*
X152559000Y-72960000D02*
X152559000Y-70353000D01*
X152559000Y-77647000D02*
X152559000Y-75040000D01*
X152599000Y-72960000D02*
X152599000Y-70334000D01*
X152599000Y-77666000D02*
X152599000Y-75040000D01*
X152639000Y-72960000D02*
X152639000Y-70314000D01*
X152639000Y-77686000D02*
X152639000Y-75040000D01*
X152679000Y-72960000D02*
X152679000Y-70296000D01*
X152679000Y-77704000D02*
X152679000Y-75040000D01*
X152719000Y-72960000D02*
X152719000Y-70278000D01*
X152719000Y-77722000D02*
X152719000Y-75040000D01*
X152759000Y-72960000D02*
X152759000Y-70260000D01*
X152759000Y-77740000D02*
X152759000Y-75040000D01*
X152799000Y-72960000D02*
X152799000Y-70243000D01*
X152799000Y-77757000D02*
X152799000Y-75040000D01*
X152839000Y-72960000D02*
X152839000Y-70226000D01*
X152839000Y-77774000D02*
X152839000Y-75040000D01*
X152879000Y-72960000D02*
X152879000Y-70210000D01*
X152879000Y-77790000D02*
X152879000Y-75040000D01*
X152919000Y-72960000D02*
X152919000Y-70195000D01*
X152919000Y-77805000D02*
X152919000Y-75040000D01*
X152959000Y-72960000D02*
X152959000Y-70179000D01*
X152959000Y-77821000D02*
X152959000Y-75040000D01*
X152999000Y-72960000D02*
X152999000Y-70165000D01*
X152999000Y-77835000D02*
X152999000Y-75040000D01*
X153039000Y-72960000D02*
X153039000Y-70150000D01*
X153039000Y-77850000D02*
X153039000Y-75040000D01*
X153079000Y-72960000D02*
X153079000Y-70137000D01*
X153079000Y-77863000D02*
X153079000Y-75040000D01*
X153119000Y-72960000D02*
X153119000Y-70123000D01*
X153119000Y-77877000D02*
X153119000Y-75040000D01*
X153159000Y-72960000D02*
X153159000Y-70111000D01*
X153159000Y-77889000D02*
X153159000Y-75040000D01*
X153199000Y-72960000D02*
X153199000Y-70098000D01*
X153199000Y-77902000D02*
X153199000Y-75040000D01*
X153239000Y-72960000D02*
X153239000Y-70086000D01*
X153239000Y-77914000D02*
X153239000Y-75040000D01*
X153279000Y-72960000D02*
X153279000Y-70075000D01*
X153279000Y-77925000D02*
X153279000Y-75040000D01*
X153319000Y-72960000D02*
X153319000Y-70064000D01*
X153319000Y-77936000D02*
X153319000Y-75040000D01*
X153359000Y-72960000D02*
X153359000Y-70053000D01*
X153359000Y-77947000D02*
X153359000Y-75040000D01*
X153399000Y-72960000D02*
X153399000Y-70043000D01*
X153399000Y-77957000D02*
X153399000Y-75040000D01*
X153439000Y-72960000D02*
X153439000Y-70033000D01*
X153439000Y-77967000D02*
X153439000Y-75040000D01*
X153479000Y-72960000D02*
X153479000Y-70024000D01*
X153479000Y-77976000D02*
X153479000Y-75040000D01*
X153519000Y-72960000D02*
X153519000Y-70015000D01*
X153519000Y-77985000D02*
X153519000Y-75040000D01*
X153559000Y-77994000D02*
X153559000Y-70006000D01*
X153599000Y-78002000D02*
X153599000Y-69998000D01*
X153639000Y-78010000D02*
X153639000Y-69990000D01*
X153679000Y-78017000D02*
X153679000Y-69983000D01*
X153720000Y-78024000D02*
X153720000Y-69976000D01*
X153760000Y-78030000D02*
X153760000Y-69970000D01*
X153800000Y-78037000D02*
X153800000Y-69963000D01*
X153840000Y-78042000D02*
X153840000Y-69958000D01*
X153880000Y-78048000D02*
X153880000Y-69952000D01*
X153920000Y-78052000D02*
X153920000Y-69948000D01*
X153960000Y-78057000D02*
X153960000Y-69943000D01*
X154000000Y-78061000D02*
X154000000Y-69939000D01*
X154040000Y-78065000D02*
X154040000Y-69935000D01*
X154080000Y-78068000D02*
X154080000Y-69932000D01*
X154120000Y-78071000D02*
X154120000Y-69929000D01*
X154160000Y-78074000D02*
X154160000Y-69926000D01*
X154200000Y-78076000D02*
X154200000Y-69924000D01*
X154240000Y-78077000D02*
X154240000Y-69923000D01*
X154280000Y-78079000D02*
X154280000Y-69921000D01*
X154320000Y-78080000D02*
X154320000Y-69920000D01*
X154360000Y-78080000D02*
X154360000Y-69920000D01*
X154400000Y-78080000D02*
X154400000Y-69920000D01*
X158409698Y-76715000D02*
X158409698Y-75915000D01*
X158809698Y-76315000D02*
X158009698Y-76315000D01*
X158520000Y-74000000D02*
G75*
G02*
X150280000Y-74000000I-4120000J0D01*
G01*
X150280000Y-74000000D02*
G75*
G02*
X158520000Y-74000000I4120000J0D01*
G01*
%TO.C,R14*%
X144630000Y-118420000D02*
X144960000Y-118420000D01*
X144630000Y-124960000D02*
X144630000Y-118420000D01*
X144960000Y-124960000D02*
X144630000Y-124960000D01*
X147040000Y-124960000D02*
X147370000Y-124960000D01*
X147370000Y-118420000D02*
X147040000Y-118420000D01*
X147370000Y-124960000D02*
X147370000Y-118420000D01*
%TO.C,JP4*%
X130410000Y-123500000D02*
X133210000Y-123500000D01*
X130410000Y-125500000D02*
X130410000Y-123500000D01*
X133210000Y-123500000D02*
X133210000Y-125500000D01*
X133210000Y-125500000D02*
X130410000Y-125500000D01*
%TO.C,D8*%
X133290000Y-128420000D02*
X133290000Y-128264000D01*
X133290000Y-130736000D02*
X133290000Y-130580000D01*
X130057665Y-128421392D02*
G75*
G02*
X133290000Y-128264484I1672335J-1078608D01*
G01*
X130688870Y-128420163D02*
G75*
G02*
X132770961Y-128420000I1041130J-1079837D01*
G01*
X132770961Y-130580000D02*
G75*
G02*
X130688870Y-130579837I-1040961J1080000D01*
G01*
X133290000Y-130735516D02*
G75*
G02*
X130057665Y-130578608I-1560000J1235516D01*
G01*
D15*
%TO.C,U1*%
X149370000Y-94910000D02*
X158140000Y-94910000D01*
X149370000Y-143170000D02*
X149370000Y-94910000D01*
X158140000Y-94260000D02*
X158140000Y-94910000D01*
X166000000Y-94260000D02*
X158140000Y-94260000D01*
X166000000Y-94910000D02*
X166000000Y-94260000D01*
X166000000Y-94910000D02*
X174770000Y-94910000D01*
X174770000Y-94910000D02*
X174770000Y-143170000D01*
X174770000Y-143170000D02*
X149370000Y-143170000D01*
D16*
X175420000Y-142040000D02*
G75*
G02*
X175220000Y-142040000I-100000J0D01*
G01*
X175220000Y-142040000D02*
G75*
G02*
X175420000Y-142040000I100000J0D01*
G01*
D13*
%TO.C,D6*%
X152760000Y-67000000D02*
X153780000Y-67000000D01*
X153780000Y-65530000D02*
X153780000Y-68470000D01*
X153780000Y-68470000D02*
X159220000Y-68470000D01*
X158200000Y-68470000D02*
X158200000Y-65530000D01*
X158320000Y-68470000D02*
X158320000Y-65530000D01*
X158440000Y-68470000D02*
X158440000Y-65530000D01*
X159220000Y-65530000D02*
X153780000Y-65530000D01*
X159220000Y-68470000D02*
X159220000Y-65530000D01*
X160240000Y-67000000D02*
X159220000Y-67000000D01*
%TO.C,U2*%
X138630000Y-78040000D02*
X138630000Y-83340000D01*
X138630000Y-83340000D02*
X143830000Y-83340000D01*
X143830000Y-78040000D02*
X138630000Y-78040000D01*
X143830000Y-79690000D02*
X143830000Y-78040000D01*
X143830000Y-83340000D02*
X143830000Y-81690000D01*
X143830000Y-81690000D02*
G75*
G02*
X143830000Y-79690000I0J1000000D01*
G01*
%TO.C,R3*%
X135130000Y-88040000D02*
X135460000Y-88040000D01*
X135130000Y-94580000D02*
X135130000Y-88040000D01*
X135460000Y-94580000D02*
X135130000Y-94580000D01*
X137540000Y-94580000D02*
X137870000Y-94580000D01*
X137870000Y-88040000D02*
X137540000Y-88040000D01*
X137870000Y-94580000D02*
X137870000Y-88040000D01*
%TO.C,R1*%
X135130000Y-78040000D02*
X135460000Y-78040000D01*
X135130000Y-84580000D02*
X135130000Y-78040000D01*
X135460000Y-84580000D02*
X135130000Y-84580000D01*
X137540000Y-84580000D02*
X137870000Y-84580000D01*
X137870000Y-78040000D02*
X137540000Y-78040000D01*
X137870000Y-84580000D02*
X137870000Y-78040000D01*
%TO.C,U5*%
X138630000Y-108860000D02*
X138630000Y-114160000D01*
X138630000Y-114160000D02*
X143830000Y-114160000D01*
X143830000Y-108860000D02*
X138630000Y-108860000D01*
X143830000Y-110510000D02*
X143830000Y-108860000D01*
X143830000Y-114160000D02*
X143830000Y-112510000D01*
X143830000Y-112510000D02*
G75*
G02*
X143830000Y-110510000I0J1000000D01*
G01*
%TO.C,R9*%
X163630000Y-70730000D02*
X163960000Y-70730000D01*
X163630000Y-77270000D02*
X163630000Y-70730000D01*
X163960000Y-77270000D02*
X163630000Y-77270000D01*
X166040000Y-77270000D02*
X166370000Y-77270000D01*
X166370000Y-70730000D02*
X166040000Y-70730000D01*
X166370000Y-77270000D02*
X166370000Y-70730000D01*
%TO.C,JP3*%
X130410000Y-103500000D02*
X133210000Y-103500000D01*
X130410000Y-105500000D02*
X130410000Y-103500000D01*
X133210000Y-103500000D02*
X133210000Y-105500000D01*
X133210000Y-105500000D02*
X130410000Y-105500000D01*
%TO.C,R6*%
X144630000Y-98040000D02*
X144960000Y-98040000D01*
X144630000Y-104580000D02*
X144630000Y-98040000D01*
X144960000Y-104580000D02*
X144630000Y-104580000D01*
X147040000Y-104580000D02*
X147370000Y-104580000D01*
X147370000Y-98040000D02*
X147040000Y-98040000D01*
X147370000Y-104580000D02*
X147370000Y-98040000D01*
%TD*%
%LPC*%
D17*
%TO.C,REF\u002A\u002A*%
X178500000Y-56500000D03*
%TD*%
D18*
%TO.C,JP5*%
X131160000Y-114500000D03*
X132460000Y-114500000D03*
%TD*%
D19*
%TO.C,R7*%
X136500000Y-115120000D03*
D20*
X136500000Y-107500000D03*
%TD*%
D21*
%TO.C,D7*%
X133000000Y-119500000D03*
D22*
X130460000Y-119500000D03*
%TD*%
D23*
%TO.C,U4*%
X142540000Y-97500000D03*
D20*
X140000000Y-97500000D03*
X140000000Y-105120000D03*
X142540000Y-105120000D03*
%TD*%
D17*
%TO.C,REF\u002A\u002A*%
X178500000Y-140500000D03*
%TD*%
D18*
%TO.C,JP1*%
X131160000Y-84500000D03*
X132460000Y-84500000D03*
%TD*%
D24*
%TO.C,C1*%
X135000000Y-61367677D03*
D25*
X135000000Y-56367677D03*
%TD*%
D19*
%TO.C,R2*%
X146000000Y-85000000D03*
D20*
X146000000Y-77380000D03*
%TD*%
D18*
%TO.C,JP2*%
X131160000Y-94500000D03*
X132460000Y-94500000D03*
%TD*%
D23*
%TO.C,U8*%
X142500000Y-128380000D03*
D20*
X139960000Y-128380000D03*
X139960000Y-136000000D03*
X142500000Y-136000000D03*
%TD*%
D19*
%TO.C,R12*%
X136500000Y-125310000D03*
D20*
X136500000Y-117690000D03*
%TD*%
D19*
%TO.C,L1*%
X165000000Y-54920000D03*
D20*
X165000000Y-65080000D03*
%TD*%
D19*
%TO.C,R15*%
X146000000Y-136000000D03*
D20*
X146000000Y-128380000D03*
%TD*%
D19*
%TO.C,R11*%
X176310000Y-78500000D03*
D20*
X168690000Y-78500000D03*
%TD*%
D26*
%TO.C,J8*%
X122500000Y-62960000D03*
D27*
X122500000Y-68040000D03*
%TD*%
D21*
%TO.C,D2*%
X133000000Y-89500000D03*
D22*
X130460000Y-89500000D03*
%TD*%
D23*
%TO.C,C2*%
X158000000Y-62500000D03*
D19*
X158000000Y-57500000D03*
%TD*%
D23*
%TO.C,U6*%
X142540000Y-118000000D03*
D20*
X140000000Y-118000000D03*
X140000000Y-125620000D03*
X142540000Y-125620000D03*
%TD*%
D28*
%TO.C,J7*%
X123000000Y-79500000D03*
D29*
X123000000Y-84500000D03*
X123000000Y-89500000D03*
X123000000Y-94500000D03*
X123000000Y-99500000D03*
X123000000Y-104500000D03*
X123000000Y-109500000D03*
X123000000Y-114500000D03*
X123000000Y-119500000D03*
X123000000Y-124500000D03*
X123000000Y-129500000D03*
X123000000Y-134500000D03*
%TD*%
D21*
%TO.C,D3*%
X133000000Y-99500000D03*
D22*
X130460000Y-99500000D03*
%TD*%
D19*
%TO.C,R4*%
X146000000Y-95120000D03*
D20*
X146000000Y-87500000D03*
%TD*%
D21*
%TO.C,D1*%
X132960000Y-79500000D03*
D22*
X130420000Y-79500000D03*
%TD*%
D23*
%TO.C,U3*%
X142540000Y-87500000D03*
D20*
X140000000Y-87500000D03*
X140000000Y-95120000D03*
X142540000Y-95120000D03*
%TD*%
D19*
%TO.C,R10*%
X168690000Y-73500000D03*
D20*
X176310000Y-73500000D03*
%TD*%
D23*
%TO.C,D5*%
X135100000Y-73810000D03*
D20*
X140180000Y-73810000D03*
X140180000Y-66190000D03*
X135100000Y-66190000D03*
%TD*%
D19*
%TO.C,R5*%
X136500000Y-105120000D03*
D20*
X136500000Y-97500000D03*
%TD*%
D19*
%TO.C,F1*%
X121420000Y-73500000D03*
D20*
X131580000Y-73500000D03*
%TD*%
D21*
%TO.C,D4*%
X133000000Y-109500000D03*
D22*
X130460000Y-109500000D03*
%TD*%
D19*
%TO.C,R8*%
X146000000Y-115120000D03*
D20*
X146000000Y-107500000D03*
%TD*%
D23*
%TO.C,U7*%
X168700000Y-61200000D03*
D20*
X168700000Y-63740000D03*
X168700000Y-66280000D03*
X168700000Y-68820000D03*
X176320000Y-68820000D03*
X176320000Y-66280000D03*
X176320000Y-63740000D03*
X176320000Y-61200000D03*
%TD*%
D19*
%TO.C,R13*%
X136500000Y-136000000D03*
D20*
X136500000Y-128380000D03*
%TD*%
D23*
%TO.C,C3*%
X156300000Y-74000000D03*
D19*
X152500000Y-74000000D03*
%TD*%
%TO.C,R14*%
X146000000Y-125500000D03*
D20*
X146000000Y-117880000D03*
%TD*%
D18*
%TO.C,JP4*%
X131160000Y-124500000D03*
X132460000Y-124500000D03*
%TD*%
D21*
%TO.C,D8*%
X133000000Y-129500000D03*
D22*
X130460000Y-129500000D03*
%TD*%
D30*
%TO.C,U1*%
X173500000Y-141900000D03*
X173500000Y-139360000D03*
X173500000Y-136820000D03*
X173500000Y-134280000D03*
X173500000Y-131740000D03*
X173500000Y-129200000D03*
X173500000Y-126660000D03*
X173500000Y-124120000D03*
X173500000Y-121580000D03*
X173500000Y-119040000D03*
X173500000Y-116500000D03*
X173500000Y-113960000D03*
X173500000Y-111420000D03*
X173500000Y-108880000D03*
X173500000Y-106340000D03*
X173500000Y-103800000D03*
X173500000Y-101260000D03*
X173500000Y-98720000D03*
X173500000Y-96180000D03*
X150640000Y-141900000D03*
X150640000Y-139360000D03*
X150640000Y-136820000D03*
X150640000Y-134280000D03*
X150640000Y-131740000D03*
X150640000Y-129200000D03*
X150640000Y-126660000D03*
X150640000Y-124120000D03*
X150640000Y-121580000D03*
X150640000Y-119040000D03*
X150640000Y-116500000D03*
X150640000Y-113960000D03*
X150640000Y-111420000D03*
X150640000Y-108880000D03*
X150640000Y-106340000D03*
X150640000Y-103800000D03*
X150640000Y-101260000D03*
X150640000Y-98720000D03*
X150640000Y-96180000D03*
%TD*%
D31*
%TO.C,D6*%
X161580000Y-67000000D03*
D32*
X151420000Y-67000000D03*
%TD*%
D23*
%TO.C,U2*%
X142500000Y-76880000D03*
D20*
X139960000Y-76880000D03*
X139960000Y-84500000D03*
X142500000Y-84500000D03*
%TD*%
D19*
%TO.C,R3*%
X136500000Y-95120000D03*
D20*
X136500000Y-87500000D03*
%TD*%
D17*
%TO.C,REF\u002A\u002A*%
X120000000Y-56500000D03*
%TD*%
D19*
%TO.C,R1*%
X136500000Y-85120000D03*
D20*
X136500000Y-77500000D03*
%TD*%
D23*
%TO.C,U5*%
X142500000Y-107700000D03*
D20*
X139960000Y-107700000D03*
X139960000Y-115320000D03*
X142500000Y-115320000D03*
%TD*%
D19*
%TO.C,R9*%
X165000000Y-77810000D03*
D20*
X165000000Y-70190000D03*
%TD*%
D18*
%TO.C,JP3*%
X131160000Y-104500000D03*
X132460000Y-104500000D03*
%TD*%
D19*
%TO.C,R6*%
X146000000Y-105120000D03*
D20*
X146000000Y-97500000D03*
%TD*%
D17*
%TO.C,REF\u002A\u002A*%
X120000000Y-140500000D03*
%TD*%
%LPD*%
M02*
