M48
INCH
T1C0.0315
T2C0.0354
T3C0.0394
T4C0.0400
T5C0.0433
T6C0.0512
T7C0.0598
%
G90
G05
T1
X4.7803Y-2.8937
X5.1803Y-2.8937
X5.3189Y-2.6059
X5.3189Y-2.9059
X5.374Y-3.0512
X5.374Y-3.3512
X5.374Y-3.4449
X5.374Y-3.7449
X5.374Y-3.8386
X5.374Y-4.1386
X5.374Y-4.2323
X5.374Y-4.5323
X5.374Y-4.6335
X5.374Y-4.9335
X5.374Y-5.0543
X5.374Y-5.3543
X5.5102Y-3.0268
X5.5102Y-3.3268
X5.5102Y-4.2402
X5.5102Y-4.5402
X5.5102Y-5.0543
X5.5102Y-5.3543
X5.5118Y-3.4449
X5.5118Y-3.7449
X5.5118Y-3.8386
X5.5118Y-4.1386
X5.5118Y-4.6457
X5.5118Y-4.9457
X5.5189Y-2.6059
X5.5189Y-2.9059
X5.6102Y-3.0268
X5.6102Y-3.3268
X5.6102Y-4.2402
X5.6102Y-4.5402
X5.6102Y-5.0543
X5.6102Y-5.3543
X5.6118Y-3.4449
X5.6118Y-3.7449
X5.6118Y-3.8386
X5.6118Y-4.1386
X5.6118Y-4.6457
X5.6118Y-4.9457
X5.748Y-3.0465
X5.748Y-3.3465
X5.748Y-3.4449
X5.748Y-3.7449
X5.748Y-3.8386
X5.748Y-4.1386
X5.748Y-4.2323
X5.748Y-4.5323
X5.748Y-4.6409
X5.748Y-4.9409
X5.748Y-5.0543
X5.748Y-5.3543
X6.0039Y-2.9134
X6.1535Y-2.9134
X6.2205Y-2.2638
X6.2205Y-2.4606
X6.4961Y-2.1622
X6.4961Y-2.5622
X6.4961Y-2.7634
X6.4961Y-3.0634
X6.6413Y-2.8937
X6.6413Y-3.0906
X6.6417Y-2.4094
X6.6417Y-2.5094
X6.6417Y-2.6094
X6.6417Y-2.7094
X6.9413Y-2.8937
X6.9413Y-3.0906
X6.9417Y-2.4094
X6.9417Y-2.5094
X6.9417Y-2.6094
X6.9417Y-2.7094
T2
X5.1346Y-3.1299
X5.1362Y-3.5236
X5.1362Y-3.9173
X5.1362Y-4.311
X5.1362Y-4.7047
X5.1362Y-5.0984
X5.2346Y-3.1299
X5.2362Y-3.5236
X5.2362Y-3.9173
X5.2362Y-4.311
X5.2362Y-4.7047
X5.2362Y-5.0984
T3
X5.315Y-2.2192
X5.315Y-2.4161
T4
X5.9307Y-3.7866
X5.9307Y-3.8866
X5.9307Y-3.9866
X5.9307Y-4.0866
X5.9307Y-4.1866
X5.9307Y-4.2866
X5.9307Y-4.3866
X5.9307Y-4.4866
X5.9307Y-4.5866
X5.9307Y-4.6866
X5.9307Y-4.7866
X5.9307Y-4.8866
X5.9307Y-4.9866
X5.9307Y-5.0866
X5.9307Y-5.1866
X5.9307Y-5.2866
X5.9307Y-5.3866
X5.9307Y-5.4866
X5.9307Y-5.5866
X6.8307Y-3.7866
X6.8307Y-3.8866
X6.8307Y-3.9866
X6.8307Y-4.0866
X6.8307Y-4.1866
X6.8307Y-4.2866
X6.8307Y-4.3866
X6.8307Y-4.4866
X6.8307Y-4.5866
X6.8307Y-4.6866
X6.8307Y-4.7866
X6.8307Y-4.8866
X6.8307Y-4.9866
X6.8307Y-5.0866
X6.8307Y-5.1866
X6.8307Y-5.2866
X6.8307Y-5.3866
X6.8307Y-5.4866
X6.8307Y-5.5866
T5
X5.9614Y-2.6378
X6.3614Y-2.6378
T6
X4.8425Y-3.1299
X4.8425Y-3.3268
X4.8425Y-3.5236
X4.8425Y-3.7205
X4.8425Y-3.9173
X4.8425Y-4.1142
X4.8425Y-4.311
X4.8425Y-4.5079
X4.8425Y-4.7047
X4.8425Y-4.9016
X4.8425Y-5.0984
X4.8425Y-5.2953
T7
X4.8228Y-2.4787
X4.8228Y-2.6787
M30
